<svg width="28" height="28" viewBox="0 0 28 28" fill="none" xmlns="http://www.w3.org/2000/svg">
<g id="vuesax/bulk/shield-tick">
<g id="shield-tick">
<path id="Vector" opacity="0.4" d="M12.7867 2.40302L6.37 4.80635C5.145 5.27302 4.14166 6.71969 4.14166 8.03802V17.488C4.14166 18.433 4.76 19.6814 5.51833 20.2414L11.935 25.0364C13.0667 25.888 14.9217 25.888 16.0533 25.0364L22.47 20.2414C23.2283 19.6697 23.8467 18.433 23.8467 17.488V8.03802C23.8467 6.73135 22.8433 5.27302 21.6183 4.81802L15.2017 2.41469C14.5483 2.15802 13.4517 2.15802 12.7867 2.40302Z" fill="#14AB8F"/>
<path id="Vector_2" d="M12.4367 16.6016C12.215 16.6016 11.9934 16.52 11.8184 16.345L9.94003 14.4666C9.6017 14.1283 9.6017 13.5683 9.94003 13.23C10.2784 12.8916 10.8384 12.8916 11.1767 13.23L12.4367 14.49L16.835 10.0916C17.1734 9.75331 17.7334 9.75331 18.0717 10.0916C18.41 10.43 18.41 10.99 18.0717 11.3283L13.055 16.345C12.88 16.52 12.6584 16.6016 12.4367 16.6016Z" fill="#14AB8F"/>
</g>
</g>
</svg>
