<svg width="177" height="46" viewBox="0 0 177 46" fill="none" xmlns="http://www.w3.org/2000/svg">
<rect width="177" height="46" rx="10" fill="white"/>
<path d="M35.6875 24.9688C35.6875 20.375 33.3906 17.0938 30.4375 17.0938C28.1406 17.0938 26.5 19.7188 26.5 19.7188C25.1875 21.6875 25.1875 25.2969 27.1562 21.3594C27.1562 21.3594 28.7969 18.7344 30.4375 18.7344C32.7344 18.7344 33.9447 22.6719 33.9447 24.9688C33.9447 25.625 33.7188 26.9375 32.4062 26.9375V28.9062C33.7188 28.9062 35.6875 27.9219 35.6875 24.9688Z" fill="url(#paint0_radial_217_2504)"/>
<path d="M22.5625 17.0938V19.0625C20.4625 19.325 19.2812 22.6719 19.2812 24.9688C19.2812 25.625 19.6094 26.9375 20.5937 26.9375C22.2344 26.9375 24.1209 23.315 25.8437 20.6654C26.7583 19.2589 27.6687 20.4666 26.9745 21.6875C25.3297 24.5803 23.6827 28.9062 20.5937 28.9062C19.2812 28.9062 17.3125 27.9219 17.3125 24.9688C17.3125 19.0625 20.9219 17.0938 22.5625 17.0938Z" fill="url(#paint1_radial_217_2504)"/>
<path d="M32.4063 26.9375C30.1094 26.9375 27.4844 17.0938 22.5625 17.0938V19.0625C26.5 19.0625 28.1406 28.9062 32.4063 28.9062V26.9375Z" fill="#0768E1"/>
<path d="M46.344 17.8H53.016V19.656H48.44V22.728H52.696V24.488H48.44V29H46.344V17.8ZM56.3525 29.16C55.9258 29.16 55.5312 29.1013 55.1685 28.984C54.8165 28.856 54.5125 28.6853 54.2565 28.472C54.0005 28.2587 53.7978 27.9973 53.6485 27.688C53.5098 27.3787 53.4405 27.0427 53.4405 26.68V26.568C53.4405 24.7653 55.1152 23.864 58.4645 23.864H59.1365V23.496C59.1365 23.0907 58.9872 22.7653 58.6885 22.52C58.3898 22.2747 57.9632 22.152 57.4085 22.152H57.3605C56.9232 22.152 56.4645 22.2267 55.9845 22.376C55.5152 22.5253 55.0725 22.7333 54.6565 23L53.8405 21.56C54.3525 21.24 54.9178 20.984 55.5365 20.792C56.1552 20.6 56.8005 20.504 57.4725 20.504H57.5685C58.0698 20.504 58.5285 20.568 58.9445 20.696C59.3605 20.824 59.7232 21.016 60.0325 21.272C60.3418 21.528 60.5818 21.8427 60.7525 22.216C60.9232 22.5893 61.0085 23.0267 61.0085 23.528V27.288C61.0085 27.576 61.0352 27.864 61.0885 28.152C61.1418 28.44 61.2112 28.7227 61.2965 29H59.4085C59.3552 28.872 59.3072 28.7227 59.2645 28.552C59.2325 28.3707 59.2058 28.1893 59.1845 28.008C58.8325 28.36 58.4165 28.6427 57.9365 28.856C57.4565 29.0587 56.9285 29.16 56.3525 29.16ZM56.7525 27.56C57.2218 27.56 57.6645 27.4693 58.0805 27.288C58.4965 27.096 58.8485 26.8453 59.1365 26.536V25.144H58.5765C57.4778 25.144 56.6672 25.256 56.1445 25.48C55.6218 25.6933 55.3605 26.024 55.3605 26.472V26.536C55.3605 26.8347 55.4885 27.08 55.7445 27.272C56.0005 27.464 56.3365 27.56 56.7525 27.56ZM66.6715 29.128C66.0422 29.128 65.4662 29.0267 64.9435 28.824C64.4315 28.6107 63.9888 28.3227 63.6155 27.96C63.2422 27.5867 62.9488 27.144 62.7355 26.632C62.5328 26.12 62.4315 25.56 62.4315 24.952V24.696C62.4315 24.088 62.5382 23.5333 62.7515 23.032C62.9648 22.52 63.2582 22.0827 63.6315 21.72C64.0048 21.3467 64.4475 21.0587 64.9595 20.856C65.4715 20.6533 66.0315 20.552 66.6395 20.552H66.7355C67.5462 20.552 68.2502 20.7227 68.8475 21.064C69.4555 21.4053 69.9462 21.8693 70.3195 22.456L68.8475 23.432C68.3888 22.568 67.6955 22.136 66.7675 22.136H66.7195C66.0262 22.136 65.4822 22.3653 65.0875 22.824C64.6928 23.2827 64.4955 23.928 64.4955 24.76V24.92C64.4955 25.72 64.7088 26.3547 65.1355 26.824C65.5622 27.2827 66.1168 27.512 66.7995 27.512H66.8795C67.3595 27.512 67.7702 27.3947 68.1115 27.16C68.4528 26.9253 68.7302 26.6107 68.9435 26.216L70.3835 27.288C69.9995 27.864 69.5035 28.3173 68.8955 28.648C68.2982 28.968 67.5942 29.128 66.7835 29.128H66.6715ZM75.2239 29.144C74.5945 29.144 74.0132 29.0427 73.4799 28.84C72.9572 28.6373 72.5039 28.3547 72.1199 27.992C71.7465 27.6293 71.4532 27.192 71.2399 26.68C71.0372 26.168 70.9359 25.608 70.9359 25V24.776C70.9359 24.168 71.0425 23.6027 71.2559 23.08C71.4692 22.5573 71.7625 22.1093 72.1359 21.736C72.5199 21.3627 72.9732 21.0693 73.4959 20.856C74.0185 20.6427 74.5839 20.536 75.1919 20.536H75.2879C75.8639 20.536 76.3919 20.632 76.8719 20.824C77.3625 21.016 77.7839 21.2827 78.1359 21.624C78.4879 21.9547 78.7599 22.3547 78.9519 22.824C79.1545 23.2933 79.2559 23.8107 79.2559 24.376V25.448H72.9039V25.464C72.9785 26.072 73.2345 26.5627 73.6719 26.936C74.1199 27.2987 74.6799 27.48 75.3519 27.48H75.4319C75.9439 27.48 76.4132 27.3787 76.8399 27.176C77.2772 26.9733 77.6185 26.7173 77.8639 26.408L78.9679 27.608C78.5732 28.088 78.0452 28.4667 77.3839 28.744C76.7332 29.0107 76.0612 29.144 75.3679 29.144H75.2239ZM77.3679 24.12C77.3252 23.5227 77.1065 23.0373 76.7119 22.664C76.3172 22.28 75.8159 22.088 75.2079 22.088H75.1919C74.6159 22.088 74.1252 22.2747 73.7199 22.648C73.3252 23.0107 73.0692 23.5013 72.9519 24.12H77.3679ZM85.4695 29.144C84.8615 29.144 84.3068 29.0373 83.8055 28.824C83.3042 28.6 82.8775 28.2907 82.5255 27.896C82.5042 28.0773 82.4722 28.2747 82.4295 28.488C82.3868 28.6907 82.3388 28.8613 82.2855 29H80.7175V17.48H82.7015V21.624C83.0428 21.2827 83.4482 21.016 83.9175 20.824C84.3868 20.632 84.9042 20.536 85.4695 20.536H85.5495C86.1255 20.536 86.6535 20.6373 87.1335 20.84C87.6242 21.0427 88.0455 21.3307 88.3975 21.704C88.7602 22.0667 89.0375 22.4987 89.2295 23C89.4322 23.4907 89.5335 24.0347 89.5335 24.632V25.048C89.5335 25.6347 89.4322 26.1787 89.2295 26.68C89.0375 27.1813 88.7602 27.6187 88.3975 27.992C88.0455 28.3547 87.6242 28.6373 87.1335 28.84C86.6535 29.0427 86.1255 29.144 85.5495 29.144H85.4695ZM85.1495 27.56C85.4908 27.56 85.8055 27.496 86.0935 27.368C86.3815 27.24 86.6268 27.064 86.8295 26.84C87.0322 26.616 87.1868 26.3493 87.2935 26.04C87.4108 25.7307 87.4695 25.3893 87.4695 25.016V24.664C87.4695 24.2907 87.4108 23.9493 87.2935 23.64C87.1868 23.3307 87.0322 23.064 86.8295 22.84C86.6268 22.616 86.3815 22.44 86.0935 22.312C85.8055 22.184 85.4908 22.12 85.1495 22.12H85.0215C84.6802 22.12 84.3655 22.184 84.0775 22.312C83.7895 22.44 83.5442 22.616 83.3415 22.84C83.1388 23.064 82.9788 23.3307 82.8615 23.64C82.7548 23.9493 82.7015 24.2907 82.7015 24.664V25.016C82.7015 25.3893 82.7548 25.7307 82.8615 26.04C82.9788 26.3493 83.1388 26.616 83.3415 26.84C83.5442 27.064 83.7895 27.24 84.0775 27.368C84.3655 27.496 84.6802 27.56 85.0215 27.56H85.1495ZM94.8602 29.144C94.2202 29.144 93.6282 29.0427 93.0842 28.84C92.5509 28.6267 92.0869 28.3387 91.6922 27.976C91.3082 27.6027 91.0042 27.16 90.7802 26.648C90.5669 26.1253 90.4602 25.56 90.4602 24.952V24.728C90.4602 24.12 90.5669 23.56 90.7802 23.048C91.0042 22.5253 91.3082 22.0827 91.6922 21.72C92.0869 21.3467 92.5509 21.0587 93.0842 20.856C93.6282 20.6427 94.2202 20.536 94.8602 20.536H94.9882C95.6282 20.536 96.2149 20.6427 96.7482 20.856C97.2922 21.0587 97.7562 21.3467 98.1402 21.72C98.5349 22.0827 98.8389 22.5253 99.0522 23.048C99.2762 23.56 99.3882 24.12 99.3882 24.728V24.952C99.3882 25.56 99.2762 26.1253 99.0522 26.648C98.8389 27.16 98.5349 27.6027 98.1402 27.976C97.7562 28.3387 97.2922 28.6267 96.7482 28.84C96.2149 29.0427 95.6282 29.144 94.9882 29.144H94.8602ZM94.9722 27.576C95.3136 27.576 95.6282 27.512 95.9162 27.384C96.2042 27.2453 96.4496 27.0587 96.6522 26.824C96.8656 26.5893 97.0309 26.312 97.1482 25.992C97.2656 25.6613 97.3242 25.304 97.3242 24.92V24.76C97.3242 24.376 97.2656 24.024 97.1482 23.704C97.0309 23.3733 96.8656 23.0907 96.6522 22.856C96.4496 22.6213 96.2042 22.44 95.9162 22.312C95.6282 22.1733 95.3136 22.104 94.9722 22.104H94.8762C94.5349 22.104 94.2202 22.1733 93.9322 22.312C93.6549 22.44 93.4096 22.6213 93.1962 22.856C92.9936 23.0907 92.8336 23.3733 92.7162 23.704C92.5989 24.024 92.5402 24.376 92.5402 24.76V24.92C92.5402 25.304 92.5989 25.6613 92.7162 25.992C92.8336 26.312 92.9936 26.5893 93.1962 26.824C93.4096 27.0587 93.6549 27.2453 93.9322 27.384C94.2202 27.512 94.5349 27.576 94.8762 27.576H94.9722ZM104.724 29.144C104.084 29.144 103.492 29.0427 102.948 28.84C102.415 28.6267 101.951 28.3387 101.556 27.976C101.172 27.6027 100.868 27.16 100.644 26.648C100.431 26.1253 100.324 25.56 100.324 24.952V24.728C100.324 24.12 100.431 23.56 100.644 23.048C100.868 22.5253 101.172 22.0827 101.556 21.72C101.951 21.3467 102.415 21.0587 102.948 20.856C103.492 20.6427 104.084 20.536 104.724 20.536H104.852C105.492 20.536 106.079 20.6427 106.612 20.856C107.156 21.0587 107.62 21.3467 108.004 21.72C108.399 22.0827 108.703 22.5253 108.916 23.048C109.14 23.56 109.252 24.12 109.252 24.728V24.952C109.252 25.56 109.14 26.1253 108.916 26.648C108.703 27.16 108.399 27.6027 108.004 27.976C107.62 28.3387 107.156 28.6267 106.612 28.84C106.079 29.0427 105.492 29.144 104.852 29.144H104.724ZM104.836 27.576C105.177 27.576 105.492 27.512 105.78 27.384C106.068 27.2453 106.313 27.0587 106.516 26.824C106.729 26.5893 106.895 26.312 107.012 25.992C107.129 25.6613 107.188 25.304 107.188 24.92V24.76C107.188 24.376 107.129 24.024 107.012 23.704C106.895 23.3733 106.729 23.0907 106.516 22.856C106.313 22.6213 106.068 22.44 105.78 22.312C105.492 22.1733 105.177 22.104 104.836 22.104H104.74C104.399 22.104 104.084 22.1733 103.796 22.312C103.519 22.44 103.273 22.6213 103.06 22.856C102.857 23.0907 102.697 23.3733 102.58 23.704C102.463 24.024 102.404 24.376 102.404 24.76V24.92C102.404 25.304 102.463 25.6613 102.58 25.992C102.697 26.312 102.857 26.5893 103.06 26.824C103.273 27.0587 103.519 27.2453 103.796 27.384C104.084 27.512 104.399 27.576 104.74 27.576H104.836ZM110.684 17.48H112.668V24.184H112.796L116.156 20.68H118.396L114.556 24.536L118.492 29H116.108L112.796 25.064H112.668V29H110.684V17.48ZM123.243 17.8H126.235L128.939 24.76H129.083L131.787 17.8H134.779V29H132.731V20.36H132.619L129.819 27.48H128.203L125.403 20.36H125.291V29H123.243V17.8ZM140.629 29.144C140 29.144 139.419 29.0427 138.885 28.84C138.363 28.6373 137.909 28.3547 137.525 27.992C137.152 27.6293 136.859 27.192 136.645 26.68C136.443 26.168 136.341 25.608 136.341 25V24.776C136.341 24.168 136.448 23.6027 136.661 23.08C136.875 22.5573 137.168 22.1093 137.541 21.736C137.925 21.3627 138.379 21.0693 138.901 20.856C139.424 20.6427 139.989 20.536 140.597 20.536H140.693C141.269 20.536 141.797 20.632 142.277 20.824C142.768 21.016 143.189 21.2827 143.541 21.624C143.893 21.9547 144.165 22.3547 144.357 22.824C144.56 23.2933 144.661 23.8107 144.661 24.376V25.448H138.309V25.464C138.384 26.072 138.64 26.5627 139.077 26.936C139.525 27.2987 140.085 27.48 140.757 27.48H140.837C141.349 27.48 141.819 27.3787 142.245 27.176C142.683 26.9733 143.024 26.7173 143.269 26.408L144.373 27.608C143.979 28.088 143.451 28.4667 142.789 28.744C142.139 29.0107 141.467 29.144 140.773 29.144H140.629ZM142.773 24.12C142.731 23.5227 142.512 23.0373 142.117 22.664C141.723 22.28 141.221 22.088 140.613 22.088H140.597C140.021 22.088 139.531 22.2747 139.125 22.648C138.731 23.0107 138.475 23.5013 138.357 24.12H142.773ZM148.955 29.08C148.571 29.08 148.219 29.032 147.899 28.936C147.59 28.84 147.318 28.6907 147.083 28.488C146.848 28.2747 146.667 28.008 146.539 27.688C146.411 27.368 146.347 26.9787 146.347 26.52V22.28H145.243V20.936C145.392 20.8827 145.563 20.8347 145.755 20.792C145.958 20.7493 146.155 20.7173 146.347 20.696V18.76L148.315 18.52V20.68H150.923V22.28H148.299V26.152C148.299 26.6107 148.4 26.9307 148.603 27.112C148.816 27.2827 149.115 27.368 149.499 27.368C149.606 27.368 149.728 27.3627 149.867 27.352C150.006 27.3413 150.144 27.3307 150.283 27.32C150.422 27.2987 150.555 27.2773 150.683 27.256C150.811 27.2347 150.918 27.2133 151.003 27.192V28.76C150.747 28.8773 150.422 28.9573 150.027 29C149.632 29.0533 149.275 29.08 148.955 29.08ZM154.51 29.16C154.083 29.16 153.689 29.1013 153.326 28.984C152.974 28.856 152.67 28.6853 152.414 28.472C152.158 28.2587 151.955 27.9973 151.806 27.688C151.667 27.3787 151.598 27.0427 151.598 26.68V26.568C151.598 24.7653 153.273 23.864 156.622 23.864H157.294V23.496C157.294 23.0907 157.145 22.7653 156.846 22.52C156.547 22.2747 156.121 22.152 155.566 22.152H155.518C155.081 22.152 154.622 22.2267 154.142 22.376C153.673 22.5253 153.23 22.7333 152.814 23L151.998 21.56C152.51 21.24 153.075 20.984 153.694 20.792C154.313 20.6 154.958 20.504 155.63 20.504H155.726C156.227 20.504 156.686 20.568 157.102 20.696C157.518 20.824 157.881 21.016 158.19 21.272C158.499 21.528 158.739 21.8427 158.91 22.216C159.081 22.5893 159.166 23.0267 159.166 23.528V27.288C159.166 27.576 159.193 27.864 159.246 28.152C159.299 28.44 159.369 28.7227 159.454 29H157.566C157.513 28.872 157.465 28.7227 157.422 28.552C157.39 28.3707 157.363 28.1893 157.342 28.008C156.99 28.36 156.574 28.6427 156.094 28.856C155.614 29.0587 155.086 29.16 154.51 29.16ZM154.91 27.56C155.379 27.56 155.822 27.4693 156.238 27.288C156.654 27.096 157.006 26.8453 157.294 26.536V25.144H156.734C155.635 25.144 154.825 25.256 154.302 25.48C153.779 25.6933 153.518 26.024 153.518 26.472V26.536C153.518 26.8347 153.646 27.08 153.902 27.272C154.158 27.464 154.494 27.56 154.91 27.56Z" fill="#0D141F"/>
<defs>
<radialGradient id="paint0_radial_217_2504" cx="0" cy="0" r="1" gradientUnits="userSpaceOnUse" gradientTransform="translate(32.4062 28.25) rotate(-101.31) scale(11.7118 9.10918)">
<stop stop-color="#0768E1"/>
<stop offset="1" stop-color="#0082FB"/>
</radialGradient>
<radialGradient id="paint1_radial_217_2504" cx="0" cy="0" r="1" gradientUnits="userSpaceOnUse" gradientTransform="translate(22.5625 18.4063) rotate(154.537) scale(7.63199 4.00292)">
<stop stop-color="#0768E1"/>
<stop offset="1" stop-color="#0082FB"/>
</radialGradient>
</defs>
</svg>
