<svg width="112" height="46" viewBox="0 0 112 46" fill="none" xmlns="http://www.w3.org/2000/svg">
<rect width="112" height="46" rx="10" fill="white"/>
<path d="M32.8759 23.1744C32.8759 22.5269 32.8223 22.0544 32.7063 21.5645H25.1616V24.4869H29.5902C29.5009 25.2132 29.0188 26.3069 27.9473 27.0419L27.9323 27.1397L30.3178 28.9508L30.483 28.967C32.0009 27.5932 32.8759 25.5719 32.8759 23.1744Z" fill="#4285F4"/>
<path d="M25.161 30.8742C27.3306 30.8742 29.152 30.1742 30.4824 28.9667L27.9467 27.0416C27.2681 27.5054 26.3574 27.8291 25.161 27.8291C23.036 27.8291 21.2325 26.4554 20.5895 24.5566L20.4953 24.5645L18.0149 26.4458L17.9824 26.5341C19.3038 29.1066 22.0181 30.8742 25.161 30.8742Z" fill="#34A853"/>
<path d="M20.59 24.5566C20.4203 24.0666 20.3222 23.5416 20.3222 22.9991C20.3222 22.4566 20.4203 21.9316 20.5811 21.4416L20.5766 21.3373L18.065 19.4258L17.9829 19.4641C17.4382 20.5316 17.1257 21.7304 17.1257 22.9991C17.1257 24.2679 17.4382 25.4666 17.9829 26.5341L20.59 24.5566Z" fill="#FBBC05"/>
<path d="M25.161 18.17C26.6699 18.17 27.6878 18.8087 28.2682 19.3425L30.536 17.1725C29.1432 15.9038 27.3306 15.125 25.161 15.125C22.0181 15.125 19.3038 16.8925 17.9824 19.465L20.5806 21.4425C21.2325 19.5437 23.036 18.17 25.161 18.17Z" fill="#EB4335"/>
<path d="M47.92 29.16C47.1413 29.16 46.4267 29.0213 45.776 28.744C45.136 28.456 44.5813 28.0613 44.112 27.56C43.6533 27.048 43.296 26.4453 43.04 25.752C42.784 25.048 42.656 24.28 42.656 23.448V23.368C42.656 22.536 42.7947 21.7733 43.072 21.08C43.3493 20.376 43.7333 19.768 44.224 19.256C44.7147 18.744 45.296 18.344 45.968 18.056C46.64 17.768 47.376 17.624 48.176 17.624H48.208C49.232 17.624 50.128 17.848 50.896 18.296C51.6747 18.744 52.3147 19.352 52.816 20.12L51.12 21.192C50.8107 20.6373 50.4267 20.216 49.968 19.928C49.52 19.6293 48.976 19.48 48.336 19.48H48.304C47.7813 19.48 47.3067 19.576 46.88 19.768C46.4533 19.96 46.0853 20.2267 45.776 20.568C45.4773 20.9093 45.2427 21.32 45.072 21.8C44.912 22.2693 44.832 22.792 44.832 23.368V23.464C44.832 24.04 44.912 24.5627 45.072 25.032C45.2427 25.5013 45.4773 25.9067 45.776 26.248C46.0853 26.5787 46.4533 26.84 46.88 27.032C47.3067 27.2133 47.7813 27.304 48.304 27.304H48.336C48.7733 27.304 49.168 27.2453 49.52 27.128C49.872 27.0107 50.1707 26.8507 50.416 26.648C50.6613 26.4347 50.848 26.1893 50.976 25.912C51.1147 25.6347 51.184 25.3413 51.184 25.032V24.808H48.688V23.048H53.136V29H51.616C51.552 28.8827 51.4933 28.7067 51.44 28.472C51.3973 28.2267 51.3653 27.992 51.344 27.768C50.992 28.184 50.5173 28.52 49.92 28.776C49.3227 29.032 48.6933 29.16 48.032 29.16H47.92ZM58.6553 29.144C58.0153 29.144 57.4233 29.0427 56.8793 28.84C56.3459 28.6267 55.8819 28.3387 55.4873 27.976C55.1033 27.6027 54.7993 27.16 54.5753 26.648C54.3619 26.1253 54.2553 25.56 54.2553 24.952V24.728C54.2553 24.12 54.3619 23.56 54.5753 23.048C54.7993 22.5253 55.1033 22.0827 55.4873 21.72C55.8819 21.3467 56.3459 21.0587 56.8793 20.856C57.4233 20.6427 58.0153 20.536 58.6553 20.536H58.7833C59.4233 20.536 60.0099 20.6427 60.5433 20.856C61.0873 21.0587 61.5513 21.3467 61.9353 21.72C62.3299 22.0827 62.6339 22.5253 62.8473 23.048C63.0713 23.56 63.1833 24.12 63.1833 24.728V24.952C63.1833 25.56 63.0713 26.1253 62.8473 26.648C62.6339 27.16 62.3299 27.6027 61.9353 27.976C61.5513 28.3387 61.0873 28.6267 60.5433 28.84C60.0099 29.0427 59.4233 29.144 58.7833 29.144H58.6553ZM58.7673 27.576C59.1086 27.576 59.4233 27.512 59.7113 27.384C59.9993 27.2453 60.2446 27.0587 60.4473 26.824C60.6606 26.5893 60.8259 26.312 60.9433 25.992C61.0606 25.6613 61.1193 25.304 61.1193 24.92V24.76C61.1193 24.376 61.0606 24.024 60.9433 23.704C60.8259 23.3733 60.6606 23.0907 60.4473 22.856C60.2446 22.6213 59.9993 22.44 59.7113 22.312C59.4233 22.1733 59.1086 22.104 58.7673 22.104H58.6713C58.3299 22.104 58.0153 22.1733 57.7273 22.312C57.4499 22.44 57.2046 22.6213 56.9913 22.856C56.7886 23.0907 56.6286 23.3733 56.5113 23.704C56.3939 24.024 56.3353 24.376 56.3353 24.76V24.92C56.3353 25.304 56.3939 25.6613 56.5113 25.992C56.6286 26.312 56.7886 26.5893 56.9913 26.824C57.2046 27.0587 57.4499 27.2453 57.7273 27.384C58.0153 27.512 58.3299 27.576 58.6713 27.576H58.7673ZM68.519 29.144C67.879 29.144 67.287 29.0427 66.743 28.84C66.2097 28.6267 65.7457 28.3387 65.351 27.976C64.967 27.6027 64.663 27.16 64.439 26.648C64.2257 26.1253 64.119 25.56 64.119 24.952V24.728C64.119 24.12 64.2257 23.56 64.439 23.048C64.663 22.5253 64.967 22.0827 65.351 21.72C65.7457 21.3467 66.2097 21.0587 66.743 20.856C67.287 20.6427 67.879 20.536 68.519 20.536H68.647C69.287 20.536 69.8737 20.6427 70.407 20.856C70.951 21.0587 71.415 21.3467 71.799 21.72C72.1937 22.0827 72.4977 22.5253 72.711 23.048C72.935 23.56 73.047 24.12 73.047 24.728V24.952C73.047 25.56 72.935 26.1253 72.711 26.648C72.4977 27.16 72.1937 27.6027 71.799 27.976C71.415 28.3387 70.951 28.6267 70.407 28.84C69.8737 29.0427 69.287 29.144 68.647 29.144H68.519ZM68.631 27.576C68.9723 27.576 69.287 27.512 69.575 27.384C69.863 27.2453 70.1083 27.0587 70.311 26.824C70.5243 26.5893 70.6897 26.312 70.807 25.992C70.9243 25.6613 70.983 25.304 70.983 24.92V24.76C70.983 24.376 70.9243 24.024 70.807 23.704C70.6897 23.3733 70.5243 23.0907 70.311 22.856C70.1083 22.6213 69.863 22.44 69.575 22.312C69.287 22.1733 68.9723 22.104 68.631 22.104H68.535C68.1937 22.104 67.879 22.1733 67.591 22.312C67.3137 22.44 67.0683 22.6213 66.855 22.856C66.6523 23.0907 66.4923 23.3733 66.375 23.704C66.2577 24.024 66.199 24.376 66.199 24.76V24.92C66.199 25.304 66.2577 25.6613 66.375 25.992C66.4923 26.312 66.6523 26.5893 66.855 26.824C67.0683 27.0587 67.3137 27.2453 67.591 27.384C67.879 27.512 68.1937 27.576 68.535 27.576H68.631ZM73.9347 23.512C73.9347 23.064 74.0254 22.6587 74.2067 22.296C74.3987 21.9227 74.6601 21.608 74.9907 21.352C75.3214 21.096 75.7107 20.8987 76.1587 20.76C76.6174 20.6107 77.1187 20.536 77.6627 20.536H77.9027C78.5427 20.536 79.1081 20.632 79.5987 20.824C79.6841 20.568 79.7694 20.344 79.8547 20.152C79.9507 19.96 80.0574 19.7893 80.1747 19.64H81.9827L80.9427 21.704C81.3907 22.2053 81.6147 22.808 81.6147 23.512V23.64C81.6147 24.0667 81.5187 24.4613 81.3267 24.824C81.1454 25.1867 80.8894 25.5013 80.5587 25.768C80.2281 26.024 79.8334 26.2267 79.3747 26.376C78.9267 26.5253 78.4361 26.6 77.9027 26.6H77.8227C77.6414 26.6 77.4547 26.584 77.2627 26.552V27.448C77.4014 27.4373 77.5294 27.432 77.6467 27.432C77.7747 27.4213 77.9081 27.416 78.0467 27.416H78.1907C78.7347 27.416 79.2414 27.4747 79.7107 27.592C80.1801 27.6987 80.5854 27.8587 80.9267 28.072C81.2681 28.2747 81.5347 28.5253 81.7267 28.824C81.9187 29.112 82.0147 29.4373 82.0147 29.8V29.96C82.0147 30.3227 81.9134 30.648 81.7107 30.936C81.5187 31.2347 81.2521 31.4853 80.9107 31.688C80.5694 31.9013 80.1587 32.0613 79.6787 32.168C79.2094 32.2853 78.6974 32.344 78.1427 32.344H77.7427C77.1881 32.344 76.6707 32.2853 76.1907 32.168C75.7107 32.0613 75.3001 31.9013 74.9587 31.688C74.6174 31.4853 74.3454 31.2347 74.1427 30.936C73.9507 30.648 73.8547 30.3227 73.8547 29.96V29.768C73.8547 29.2987 74.0147 28.8827 74.3347 28.52C74.6654 28.1573 75.0974 27.8693 75.6307 27.656V26.152C75.1081 25.9067 74.6921 25.5653 74.3827 25.128C74.0841 24.68 73.9347 24.184 73.9347 23.64V23.512ZM75.9027 23.704C75.9027 23.928 75.9507 24.1307 76.0467 24.312C76.1427 24.4933 76.2707 24.648 76.4307 24.776C76.6014 24.904 76.7987 25.0053 77.0227 25.08C77.2467 25.144 77.4814 25.176 77.7267 25.176H77.9027C78.1481 25.176 78.3774 25.1387 78.5907 25.064C78.8147 24.9893 79.0067 24.888 79.1667 24.76C79.3374 24.632 79.4707 24.4773 79.5667 24.296C79.6627 24.1147 79.7107 23.9173 79.7107 23.704V23.528C79.7107 23.3147 79.6627 23.1173 79.5667 22.936C79.4707 22.7547 79.3374 22.6 79.1667 22.472C79.0067 22.344 78.8147 22.2427 78.5907 22.168C78.3774 22.0933 78.1427 22.056 77.8867 22.056H77.7427C77.4867 22.056 77.2467 22.0933 77.0227 22.168C76.8094 22.2427 76.6174 22.344 76.4467 22.472C76.2761 22.6 76.1427 22.7547 76.0467 22.936C75.9507 23.1173 75.9027 23.3147 75.9027 23.528V23.704ZM75.8387 29.864C75.8387 30.1627 76.0147 30.4027 76.3667 30.584C76.7187 30.776 77.1827 30.872 77.7587 30.872H78.1267C78.7027 30.872 79.1667 30.776 79.5187 30.584C79.8814 30.392 80.0627 30.152 80.0627 29.864V29.736C80.0627 29.448 79.8814 29.208 79.5187 29.016C79.1667 28.8347 78.7027 28.744 78.1267 28.744H77.7587C77.1827 28.744 76.7187 28.8347 76.3667 29.016C76.0147 29.208 75.8387 29.448 75.8387 29.736V29.864ZM83.139 17.48H85.123V29H83.139V17.48ZM90.8576 29.144C90.2283 29.144 89.647 29.0427 89.1136 28.84C88.591 28.6373 88.1376 28.3547 87.7536 27.992C87.3803 27.6293 87.087 27.192 86.8736 26.68C86.671 26.168 86.5696 25.608 86.5696 25V24.776C86.5696 24.168 86.6763 23.6027 86.8896 23.08C87.103 22.5573 87.3963 22.1093 87.7696 21.736C88.1536 21.3627 88.607 21.0693 89.1296 20.856C89.6523 20.6427 90.2176 20.536 90.8256 20.536H90.9216C91.4976 20.536 92.0256 20.632 92.5056 20.824C92.9963 21.016 93.4176 21.2827 93.7696 21.624C94.1216 21.9547 94.3936 22.3547 94.5856 22.824C94.7883 23.2933 94.8896 23.8107 94.8896 24.376V25.448H88.5376V25.464C88.6123 26.072 88.8683 26.5627 89.3056 26.936C89.7536 27.2987 90.3136 27.48 90.9856 27.48H91.0656C91.5776 27.48 92.047 27.3787 92.4736 27.176C92.911 26.9733 93.2523 26.7173 93.4976 26.408L94.6016 27.608C94.207 28.088 93.679 28.4667 93.0176 28.744C92.367 29.0107 91.695 29.144 91.0016 29.144H90.8576ZM93.0016 24.12C92.959 23.5227 92.7403 23.0373 92.3456 22.664C91.951 22.28 91.4496 22.088 90.8416 22.088H90.8256C90.2496 22.088 89.759 22.2747 89.3536 22.648C88.959 23.0107 88.703 23.5013 88.5856 24.12H93.0016Z" fill="#0D141F"/>
</svg>
