<svg width="104" height="46" viewBox="0 0 104 46" fill="none" xmlns="http://www.w3.org/2000/svg">
<rect width="103.718" height="46" rx="10" fill="white"/>
<path d="M21.9801 27.0205L22.0421 27.1964C22.0322 27.1763 22.0096 27.1147 21.9801 27.0205ZM19.1016 25.7692C19.2105 24.8241 19.5801 24.2948 20.2767 23.7522C21.2733 23.0173 22.5183 23.433 22.5183 23.433V20.9664C22.8209 20.9586 23.1237 20.9776 23.4231 21.023V24.1964C23.4231 24.1964 22.1785 23.7807 21.1819 24.5156C20.4857 25.0582 20.1153 25.5879 20.0068 26.533C20.0034 27.0467 20.0953 27.7178 20.5182 28.2981C20.4136 28.2418 20.307 28.1777 20.1984 28.1058C19.2668 27.4495 19.0971 26.4653 19.1016 25.7692ZM28.5635 16.4065C27.8779 15.6184 27.6187 14.8226 27.5249 14.2637H28.3874C28.3874 14.2637 28.2154 15.7293 29.4687 17.1706L29.4861 17.19C29.1483 16.9671 28.8385 16.704 28.5635 16.4065Z" fill="#A0ABBD"/>
<path d="M32.7184 18.6416V21.7511C32.7184 21.7511 31.6178 21.7063 30.8033 21.4885C29.6661 21.1845 28.9351 20.7187 28.9351 20.7187C28.9351 20.7187 28.4302 20.3858 28.3894 20.363V26.7868C28.3894 27.144 28.296 28.037 28.0114 28.7822C27.6399 29.7565 27.0666 30.396 26.9611 30.5263C26.9611 30.5263 26.2638 31.3912 25.0336 31.9734C23.9247 32.4985 22.9511 32.4852 22.6601 32.4985C22.6601 32.4985 20.9771 32.5684 19.4627 31.5356C19.1351 31.3084 18.8293 31.0507 18.5496 30.7661L18.5571 30.7714C20.0719 31.8043 21.7545 31.7344 21.7545 31.7344C22.0459 31.7211 23.0195 31.7343 24.128 31.2092C25.3575 30.627 26.0556 29.7622 26.0556 29.7622C26.1599 29.6318 26.7359 28.9923 27.1059 28.0176C27.3897 27.2728 27.4838 26.3798 27.4838 26.0223V19.5988C27.5246 19.622 28.0296 19.9549 28.0296 19.9549C28.0296 19.9549 28.7605 20.4215 29.8978 20.7247C30.7126 20.9421 31.8128 20.9873 31.8128 20.9873V18.5508C32.1892 18.6393 32.5101 18.6636 32.7184 18.6416Z" fill="#C22C74"/>
<path d="M31.8133 18.552V20.9881C31.8133 20.9881 30.7131 20.9429 29.8982 20.7256C28.761 20.4216 28.0301 19.9557 28.0301 19.9557C28.0301 19.9557 27.5251 19.6228 27.4843 19.5996V26.0219C27.4843 26.3795 27.3909 27.2725 27.1064 28.0173C26.7348 28.992 26.1615 29.6315 26.056 29.7618C26.056 29.7618 25.3587 30.6267 24.1285 31.2089C23.02 31.734 22.0464 31.7207 21.755 31.734C21.755 31.734 20.0724 31.8039 18.5576 30.7711L18.55 30.7658C18.3902 30.6033 18.2397 30.4317 18.0992 30.252C17.6158 29.6334 17.3195 28.9027 17.245 28.6941C17.2448 28.6932 17.2448 28.6923 17.245 28.6914C17.1248 28.3285 16.8731 27.4583 16.9075 26.6151C16.9683 25.127 17.4672 24.2143 17.5991 23.9852C17.9486 23.3614 18.4031 22.8034 18.9424 22.336C19.4179 21.9322 19.9572 21.6111 20.538 21.386C20.9002 21.2347 21.2776 21.1232 21.6636 21.0535C21.9459 21.0027 22.2317 20.9742 22.5185 20.968V23.433C22.5185 23.433 21.2735 23.0173 20.2769 23.7522C19.5803 24.2949 19.2107 24.8242 19.1018 25.7692C19.0973 26.4654 19.267 27.4496 20.1979 28.1066C20.3062 28.1788 20.4128 28.2429 20.5176 28.2989C20.6804 28.5198 20.8782 28.7124 21.1031 28.8689C22.0124 29.4727 22.7743 29.5149 23.7487 29.1227C24.3991 28.8639 24.8863 28.273 25.1172 27.6179C25.2597 27.209 25.2578 26.7971 25.2578 26.3719V14.2656H27.5255C27.6192 14.8246 27.8785 15.6203 28.5641 16.4084C28.8391 16.706 29.1489 16.9691 29.4867 17.192C29.5864 17.3003 30.0967 17.8353 30.7516 18.1644C31.0895 18.3342 31.4458 18.4642 31.8133 18.552Z" fill="#0B121D"/>
<path d="M16.3425 27.9355V27.9378L16.3985 28.0978C16.3924 28.0792 16.3713 28.0226 16.3425 27.9355Z" fill="#E0E6F1"/>
<path d="M20.5379 21.3857C19.9571 21.6108 19.4178 21.9319 18.9422 22.3357C18.4029 22.8043 17.9487 23.3634 17.5998 23.9883C17.4679 24.2163 16.969 25.1302 16.9081 26.6183C16.8737 27.4615 17.1254 28.3317 17.2456 28.6946C17.2454 28.6954 17.2454 28.6963 17.2456 28.6972C17.3212 28.9039 17.6164 29.6347 18.0998 30.2552C18.2403 30.4349 18.3908 30.6064 18.5507 30.769C18.0383 30.4126 17.5813 29.9818 17.1946 29.4906C16.7154 28.8777 16.4198 28.1542 16.3427 27.9406L16.3408 27.9361V27.933C16.2206 27.5713 15.9682 26.7003 16.0033 25.856C16.0642 24.3679 16.5631 23.4552 16.695 23.226C17.0438 22.6011 17.4981 22.0419 18.0374 21.5734C18.5129 21.1695 19.0522 20.8484 19.6331 20.6235C19.9953 20.4721 20.3726 20.3607 20.7586 20.291C21.3403 20.1887 21.9343 20.1798 22.5187 20.2647V20.9677C22.2321 20.973 21.9462 21.0007 21.6638 21.0506C21.2776 21.1211 20.9001 21.2335 20.5379 21.3857Z" fill="#E0E6F1"/>
<path d="M27.5251 14.2649H25.2574V26.372C25.2574 26.7972 25.2593 27.208 25.1168 27.618C24.8878 28.2723 24.4006 28.8632 23.7513 29.1254C22.7766 29.5191 22.0147 29.4754 21.1057 28.8716C20.8808 28.7151 20.683 28.5226 20.5203 28.3016C21.2947 28.7169 21.9878 28.7097 22.8465 28.3632C23.4921 28.0991 23.9834 27.5082 24.2101 26.8534C24.353 26.4446 24.3511 26.0326 24.3511 25.6078V13.5H27.4824C27.4824 13.5 27.4469 13.8013 27.5251 14.2649ZM31.8133 17.8779V18.5513C31.4456 18.4636 31.0893 18.3335 30.7513 18.1637C30.0963 17.8346 29.586 17.2996 29.4863 17.1913C29.602 17.2677 29.7221 17.3371 29.8461 17.3991C30.6424 17.7989 31.4247 17.9186 31.8133 17.8779Z" fill="#5F9BFF"/>
<path d="M44.1105 19.656H40.9745V17.8H49.3585V19.656H46.2065V29H44.1105V19.656ZM51.352 19.384C51.0107 19.384 50.728 19.288 50.504 19.096C50.2907 18.8933 50.184 18.6373 50.184 18.328C50.184 18.0187 50.2907 17.7627 50.504 17.56C50.728 17.3467 51.0107 17.24 51.352 17.24C51.704 17.24 51.992 17.3467 52.216 17.56C52.44 17.7627 52.552 18.0187 52.552 18.328C52.552 18.6373 52.44 18.8933 52.216 19.096C51.992 19.288 51.704 19.384 51.352 19.384ZM50.376 20.68H52.36V29H50.376V20.68ZM54.4429 17.48H56.4269V24.184H56.5549L59.9149 20.68H62.1549L58.3149 24.536L62.2509 29H59.8669L56.5549 25.064H56.4269V29H54.4429V17.48ZM64.6861 19.656H61.5501V17.8H69.9341V19.656H66.7821V29H64.6861V19.656ZM73.5119 29.144C72.8719 29.144 72.2799 29.0427 71.7359 28.84C71.2025 28.6267 70.7385 28.3387 70.3439 27.976C69.9599 27.6027 69.6559 27.16 69.4319 26.648C69.2185 26.1253 69.1119 25.56 69.1119 24.952V24.728C69.1119 24.12 69.2185 23.56 69.4319 23.048C69.6559 22.5253 69.9599 22.0827 70.3439 21.72C70.7385 21.3467 71.2025 21.0587 71.7359 20.856C72.2799 20.6427 72.8719 20.536 73.5119 20.536H73.6399C74.2799 20.536 74.8665 20.6427 75.3999 20.856C75.9439 21.0587 76.4079 21.3467 76.7919 21.72C77.1865 22.0827 77.4905 22.5253 77.7039 23.048C77.9279 23.56 78.0399 24.12 78.0399 24.728V24.952C78.0399 25.56 77.9279 26.1253 77.7039 26.648C77.4905 27.16 77.1865 27.6027 76.7919 27.976C76.4079 28.3387 75.9439 28.6267 75.3999 28.84C74.8665 29.0427 74.2799 29.144 73.6399 29.144H73.5119ZM73.6239 27.576C73.9652 27.576 74.2799 27.512 74.5679 27.384C74.8559 27.2453 75.1012 27.0587 75.3039 26.824C75.5172 26.5893 75.6825 26.312 75.7999 25.992C75.9172 25.6613 75.9759 25.304 75.9759 24.92V24.76C75.9759 24.376 75.9172 24.024 75.7999 23.704C75.6825 23.3733 75.5172 23.0907 75.3039 22.856C75.1012 22.6213 74.8559 22.44 74.5679 22.312C74.2799 22.1733 73.9652 22.104 73.6239 22.104H73.5279C73.1865 22.104 72.8719 22.1733 72.5839 22.312C72.3065 22.44 72.0612 22.6213 71.8479 22.856C71.6452 23.0907 71.4852 23.3733 71.3679 23.704C71.2505 24.024 71.1919 24.376 71.1919 24.76V24.92C71.1919 25.304 71.2505 25.6613 71.3679 25.992C71.4852 26.312 71.6452 26.5893 71.8479 26.824C72.0612 27.0587 72.3065 27.2453 72.5839 27.384C72.8719 27.512 73.1865 27.576 73.5279 27.576H73.6239ZM79.4716 17.48H81.4556V24.184H81.5836L84.9436 20.68H87.1836L83.3436 24.536L87.2796 29H84.8956L81.5836 25.064H81.4556V29H79.4716V17.48Z" fill="#0D141F"/>
</svg>
