<svg width="21" height="21" viewBox="0 0 21 21" fill="none" xmlns="http://www.w3.org/2000/svg">
<path opacity="0.4" d="M10.5 19.25C15.3325 19.25 19.25 15.3325 19.25 10.5C19.25 5.66751 15.3325 1.75 10.5 1.75C5.66751 1.75 1.75 5.66751 1.75 10.5C1.75 15.3325 5.66751 19.25 10.5 19.25Z" fill="#3DAB83"/>
<path d="M9.25751 13.6329C9.08251 13.6329 8.91626 13.5629 8.79376 13.4404L6.31751 10.9641C6.06376 10.7104 6.06376 10.2904 6.31751 10.0366C6.57126 9.78289 6.99126 9.78289 7.24501 10.0366L9.25751 12.0491L13.755 7.55164C14.0088 7.29789 14.4288 7.29789 14.6825 7.55164C14.9363 7.80539 14.9363 8.22539 14.6825 8.47914L9.72126 13.4404C9.59876 13.5629 9.43251 13.6329 9.25751 13.6329Z" fill="#3DAB83"/>
</svg>
