<svg width="145" height="28" viewBox="0 0 145 28" fill="none" xmlns="http://www.w3.org/2000/svg">
<g id="Facebook logo" clip-path="url(#clip0_50_11845)">
<g id="Group">
<path id="Vector" d="M9.18575 27.5097H3.722V13.9801H0V9.57515H3.72186V6.44071C3.72186 2.72639 5.36804 0.0625 10.817 0.0625C11.9695 0.0625 13.7788 0.293241 13.7788 0.293241V4.38349H11.8784C9.94207 4.38349 9.18604 4.96855 9.18604 6.58604V9.57515H13.7063L13.3038 13.9801H9.18589L9.18575 27.5097ZM21.7224 9.22314C21.6428 9.22314 21.5609 9.22602 21.4799 9.22804C16.4136 9.22804 14.0956 13.0135 14.0956 18.3871C14.0956 25.1563 17.1023 27.8656 21.5194 27.8656C24.0467 27.8656 25.707 26.809 26.7162 24.8372V27.5116H31.913V9.57703H26.7162V12.3351C25.8922 10.5606 24.1854 9.24417 21.7224 9.22314ZM23.0438 13.461C25.1717 13.461 26.4489 14.9353 26.4489 17.4431L26.4538 20.0044C26.4538 21.6947 25.3989 23.6721 23.0438 23.6721C19.4232 23.6721 19.5199 19.7887 19.5199 18.4953C19.5199 14.1445 21.449 13.461 23.0438 13.461ZM34.0118 18.5452C34.0118 16.3659 33.9068 9.23481 43.2599 9.23481C47.0144 9.23481 48.5821 10.4206 48.5821 10.4206L47.3221 14.3027C47.3221 14.3027 45.7563 13.4463 43.7162 13.4463C41.1031 13.4463 39.4358 14.951 39.4358 17.5985L39.4387 19.4969C39.4387 22.0408 41.0475 23.7389 43.7216 23.7389C45.5802 23.7389 47.2932 22.8744 47.2932 22.8744L48.5501 26.6755C48.5501 26.6755 47.1166 27.8688 43.2861 27.8688C34.3805 27.8688 34.0119 21.4708 34.0119 18.5452H34.0118ZM79.0528 9.22804C84.1193 9.22804 86.4738 13.0135 86.4738 18.3871C86.4738 25.1563 83.4669 27.8656 79.0498 27.8656C76.5226 27.8656 74.6544 26.8091 73.6452 24.8372V27.5116L68.5138 27.5096V0.607809L73.962 0.135813V12.0921C74.7484 10.0003 77.3324 9.22804 79.0528 9.22804ZM77.5254 13.461C75.3975 13.461 73.962 14.9353 73.962 17.4431L73.957 20.0044C73.9538 21.6947 74.9511 23.6721 77.5254 23.6721C81.1461 23.6721 81.0493 19.7887 81.0493 18.4953C81.0493 14.1445 79.1204 13.461 77.5254 13.461ZM58.0352 9.24287C52.2889 9.24287 49.2552 12.355 49.2552 17.8856V18.9131C49.2552 26.0913 53.5154 27.9394 58.5945 27.9394C63.5313 27.9394 65.7659 26.5677 65.7659 26.5677L64.7464 22.9151C64.7464 22.9151 62.1179 24.026 59.2477 24.026C56.2723 24.026 54.9927 23.2727 54.6647 20.4324H66.2015V17.502C66.2015 11.5027 62.7967 9.24273 58.0351 9.24273L58.0352 9.24287ZM58.1737 12.9004C60.1628 12.9004 61.4517 14.112 61.381 16.922H54.6747C54.791 13.9646 56.181 12.9004 58.1737 12.9004ZM97.3373 9.21824C91.4363 9.21824 88.3296 12.5215 88.3296 18.4411C88.3296 26.5631 93.6848 27.8705 97.3472 27.8705C102.709 27.8705 106.276 25.0032 106.276 18.5148C106.276 11.7616 102.265 9.21824 97.3373 9.21824ZM97.2631 13.4757C99.8579 13.4757 100.886 15.4047 100.886 17.6005V19.4884C100.886 22.1484 99.4474 23.6869 97.2532 23.6869C95.2012 23.6869 93.759 22.2477 93.759 19.4884V17.6005C93.759 14.6576 95.4751 13.4757 97.2631 13.4757ZM117.13 9.21824C111.228 9.21824 108.122 12.5215 108.122 18.4411C108.122 26.5631 113.477 27.8705 117.139 27.8705C122.501 27.8705 126.068 25.0032 126.068 18.5148C126.068 11.7616 122.057 9.21824 117.13 9.21824ZM117.055 13.4757C119.65 13.4757 120.678 15.4047 120.678 17.6005V19.4884C120.678 22.1484 119.239 23.6869 117.045 23.6869C114.993 23.6869 113.551 22.2477 113.551 19.4884V17.6005C113.551 14.6576 115.267 13.4757 117.055 13.4757ZM128.127 27.5097V0.607809L133.591 0.135813V18.1672L139.012 9.57515H144.782L139.127 18.4739L145 27.5097H139.213L133.591 18.7361V27.5097H128.127Z" fill="#1877F2"/>
</g>
</g>
<defs>
<clipPath id="clip0_50_11845">
<rect width="145" height="28" fill="white"/>
</clipPath>
</defs>
</svg>
