<svg width="93" height="19" viewBox="0 0 93 19" fill="none" xmlns="http://www.w3.org/2000/svg">
<g id="Facebook logo" clip-path="url(#clip0_90_1219)">
<g id="Group">
<path id="Vector" d="M5.89155 18.1837H2.38722V9.4861H0V6.65434H2.38712V4.63934C2.38712 2.25156 3.44295 0.539062 6.9378 0.539062C7.67696 0.539062 8.83742 0.687396 8.83742 0.687396V3.31684H7.61856C6.37664 3.31684 5.89174 3.69295 5.89174 4.73277V6.65434H8.79092L8.53275 9.4861H5.89164L5.89155 18.1837ZM13.9323 6.42804C13.8813 6.42804 13.8287 6.4299 13.7767 6.43119C10.5273 6.43119 9.04062 8.86471 9.04062 12.3192C9.04062 16.6708 10.9691 18.4125 13.8021 18.4125C15.423 18.4125 16.488 17.7332 17.1353 16.4656V18.1849H20.4684V6.65554H17.1353V8.4286C16.6067 7.28786 15.512 6.44156 13.9323 6.42804ZM14.7798 9.1524C16.1446 9.1524 16.9638 10.1002 16.9638 11.7123L16.9669 13.3589C16.9669 14.4455 16.2903 15.7167 14.7798 15.7167C12.4576 15.7167 12.5197 13.2202 12.5197 12.3887C12.5197 9.59175 13.7569 9.1524 14.7798 9.1524ZM21.8145 12.4208C21.8145 11.0198 21.7471 6.43554 27.746 6.43554C30.154 6.43554 31.1596 7.19786 31.1596 7.19786L30.3514 9.69351C30.3514 9.69351 29.3472 9.14295 28.0387 9.14295C26.3627 9.14295 25.2933 10.1103 25.2933 11.8122L25.2952 13.0326C25.2952 14.668 26.327 15.7596 28.0421 15.7596C29.2342 15.7596 30.3329 15.2039 30.3329 15.2039L31.139 17.6474C31.139 17.6474 30.2196 18.4145 27.7628 18.4145C22.051 18.4145 21.8145 14.3016 21.8145 12.4208H21.8145ZM50.7029 6.43119C53.9524 6.43119 55.4625 8.86471 55.4625 12.3192C55.4625 16.6708 53.534 18.4125 50.7009 18.4125C49.08 18.4125 47.8818 17.7333 47.2345 16.4656V18.1849L43.9433 18.1836V0.889618L47.4377 0.586192V8.2724C47.9421 6.92767 49.5994 6.43119 50.7029 6.43119ZM49.7232 9.1524C48.3584 9.1524 47.4377 10.1002 47.4377 11.7123L47.4345 13.3589C47.4324 14.4455 48.0721 15.7167 49.7232 15.7167C52.0454 15.7167 51.9834 13.2202 51.9834 12.3887C51.9834 9.59175 50.7462 9.1524 49.7232 9.1524ZM37.2226 6.44073C33.537 6.44073 31.5913 8.44138 31.5913 11.9967V12.6573C31.5913 17.2718 34.3237 18.4599 37.5813 18.4599C40.7477 18.4599 42.1809 17.5781 42.1809 17.5781L41.527 15.23C41.527 15.23 39.8411 15.9442 38.0003 15.9442C36.0919 15.9442 35.2712 15.4599 35.0608 13.634H42.4603V11.7502C42.4603 7.89351 40.2765 6.44064 37.2225 6.44064L37.2226 6.44073ZM37.3114 8.79203C38.5872 8.79203 39.4139 9.57092 39.3685 11.3773H35.0672C35.1418 9.4761 36.0333 8.79203 37.3114 8.79203ZM62.4302 6.4249C58.6453 6.4249 56.6528 8.54842 56.6528 12.3539C56.6528 17.5752 60.0875 18.4156 62.4365 18.4156C65.8753 18.4156 68.163 16.5724 68.163 12.4013C68.163 8.0599 65.5907 6.4249 62.4302 6.4249ZM62.3825 9.16184C64.0468 9.16184 64.7062 10.4019 64.7062 11.8135V13.0271C64.7062 14.7371 63.7835 15.7262 62.3762 15.7262C61.0601 15.7262 60.1351 14.801 60.1351 13.0271V11.8135C60.1351 9.92166 61.2358 9.16184 62.3825 9.16184ZM75.1245 6.4249C71.3396 6.4249 69.3471 8.54842 69.3471 12.3539C69.3471 17.5752 72.7818 18.4156 75.1308 18.4156C78.5695 18.4156 80.8574 16.5724 80.8574 12.4013C80.8574 8.0599 78.2849 6.4249 75.1245 6.4249ZM75.0769 9.16184C76.7411 9.16184 77.4005 10.4019 77.4005 11.8135V13.0271C77.4005 14.7371 76.4777 15.7262 75.0705 15.7262C73.7544 15.7262 72.8294 14.801 72.8294 13.0271V11.8135C72.8294 9.92166 73.9301 9.16184 75.0769 9.16184ZM82.1779 18.1837V0.889618L85.6824 0.586192V12.1778L89.1593 6.65434H92.8603L89.2333 12.375L93 18.1837H89.2885L85.6824 12.5435V18.1837H82.1779Z" fill="#BBC5D4"/>
</g>
</g>
<defs>
<clipPath id="clip0_90_1219">
<rect width="93" height="18" fill="white" transform="translate(0 0.5)"/>
</clipPath>
</defs>
</svg>
