<svg width="120" height="24" viewBox="0 0 120 24" fill="none" xmlns="http://www.w3.org/2000/svg">
<g id="gg-bet" clip-path="url(#clip0_96_15741)">
<path id="Path_13011" d="M57.6343 23.149H50.0801L51.3886 15.7988H58.9428L57.6343 23.149Z" fill="#B4C0D3"/>
<path id="Path_13012" d="M12.3757 8.86794L11.7167 12.7971H16.0906L15.5673 15.7359C15.4854 16.198 15.1667 17.7973 14.7348 18.1623C14.3459 18.4307 13.8758 18.559 13.4029 18.5257H11.1366C9.86923 18.5257 8.75407 18.2285 8.15009 16.9401C7.55739 15.5856 8.01265 12.8409 8.23681 11.5851C8.46617 10.2968 8.90842 7.99915 9.93903 6.71076C10.9627 5.45459 12.4148 4.79408 14.3182 4.79408H22.9004L25.9151 0.0214844H11.7601C11.127 0.0214844 8.01872 0.0545565 5.60716 1.60749C2.18189 3.78786 1.12483 8.04939 0.47186 11.717C-0.0688116 14.7563 -0.582605 18.9521 1.58615 21.1986C2.85177 22.5205 5.20826 23.1484 7.1095 23.1484H18.1501C19.0926 23.1561 20.015 22.8796 20.795 22.3556C21.6619 21.7041 22.2392 20.7444 22.4053 19.6792L23.6306 12.7962L23.7077 12.3629L24.1543 9.85184L24.3278 8.86708L12.3757 8.86794Z" fill="#B4C0D3"/>
<path id="Path_13013" d="M37.8413 8.86794L37.1822 12.7971H41.5562L41.0328 15.7359C40.95 16.198 40.6322 17.7973 40.1999 18.1623C39.8112 18.4308 39.3411 18.5591 38.8684 18.5257H36.6004C35.3321 18.5257 34.2178 18.2285 33.6134 16.9401C33.0207 15.5856 33.4764 12.8409 33.7002 11.5851C33.9295 10.2968 34.3718 7.99915 35.4015 6.71076C36.4256 5.45459 37.8772 4.79408 39.7807 4.79408H48.3629L51.3776 0.0214844H37.2256C36.5917 0.0214844 33.4842 0.0545565 31.0727 1.60749C27.6474 3.78786 26.5899 8.04939 25.9374 11.717C25.3958 14.7563 24.8829 18.9521 27.0508 21.1986C28.3173 22.5205 30.6734 23.1484 32.5746 23.1484H43.6152C44.5576 23.1561 45.4801 22.8796 46.26 22.3556C47.1266 21.7038 47.7038 20.7443 47.8699 19.6792L49.0956 12.7962L49.1724 12.3629L49.6199 9.85184L49.7933 8.86708L37.8413 8.86794Z" fill="#B4C0D3"/>
<path id="Path_13014" d="M79.2056 23.1502C78.2383 23.1502 77.2827 23.0845 76.5113 22.3574C75.6008 21.4655 75.7677 20.54 75.9615 19.45L78.785 3.59087C78.9074 2.5533 79.4354 1.60454 80.2557 0.947974C81.1194 0.308794 82.1783 -0.0177182 83.2556 0.022913H98.4096L95.3958 4.78993H87.6443C87.211 4.77388 86.783 4.88924 86.4177 5.12061C86.0881 5.40756 85.8848 5.81071 85.851 6.24408L85.3828 8.86937H94.7068L94.0084 12.7985H84.6843L83.87 17.3714C83.8244 17.518 83.8169 17.6737 83.8485 17.8239C83.88 17.9741 83.9495 18.1139 84.0504 18.2303C84.3586 18.5601 84.9648 18.5275 85.4322 18.5275H96.2573L95.4335 23.1507L79.2056 23.1502Z" fill="#758296"/>
<path id="Path_13017" d="M73.8951 10.099C75.1685 8.9429 75.4802 7.75287 75.7035 6.49841C75.9745 4.97812 76.1839 2.86346 75.1186 1.54243C74.0654 0.199081 72.1157 0.0328856 70.4793 0.0234375H54.2041L53.5464 3.74385L53.5433 3.75588L51.9343 12.7977H65.5305C66.1275 12.8029 66.8143 12.86 67.1603 13.4578C67.306 13.7475 67.3517 14.0766 67.2904 14.3945L66.8811 16.7136C66.7793 17.2158 66.5464 17.6828 66.2056 18.0681C66.0434 18.233 65.5552 18.5306 64.1222 18.5306H61.924L59.019 23.1495H66.6361C68.6375 23.1495 70.3722 23.1495 72.1612 21.5304C73.8656 20.0105 74.1621 18.1604 74.4262 16.6736C74.679 15.253 74.9105 13.7662 73.8877 12.577C73.2197 11.8713 72.3044 11.4456 71.3296 11.3874L71.353 11.2551C72.3145 11.1906 73.2189 10.7793 73.8951 10.099ZM68.2833 6.21196C68.2802 6.22828 68.2742 6.24889 68.2707 6.2665H68.2733L68.1146 7.14131L68.0933 7.25727L68.0821 7.30494C68.0121 7.63692 67.8797 7.95291 67.6918 8.23644C67.1802 8.86431 66.4128 8.86431 65.7785 8.86431H60.1723L60.3457 7.89717L60.5088 6.98027C60.5252 6.88922 60.5391 6.80075 60.5565 6.71486L60.6809 6.01398C60.6844 5.82462 60.7287 5.63818 60.811 5.46721C60.8932 5.29624 61.0115 5.1447 61.1578 5.02278C61.4506 4.81212 61.8125 4.71801 62.172 4.7591H66.4748C66.9752 4.7591 67.7092 4.7591 68.0938 5.2212C68.1898 5.36579 68.2559 5.52779 68.2884 5.69785C68.3208 5.8679 68.3189 6.04263 68.2828 6.21196H68.2833Z" fill="#758296"/>
<path id="Path_13015" d="M101.394 23.149L104.667 4.76812H99.0342L99.8792 0.0234375H119.764L116.755 4.76812H112.205L108.933 23.149H101.394Z" fill="#758296"/>
</g>
<defs>
<clipPath id="clip0_96_15741">
<rect width="119.764" height="23.1269" fill="white" transform="translate(0 0.0214844)"/>
</clipPath>
</defs>
</svg>
