<svg width="73" height="23" viewBox="0 0 73 23" fill="none" xmlns="http://www.w3.org/2000/svg">
<g id="googleplus logo" clip-path="url(#clip0_90_1234)">
<path id="Vector" d="M18.0016 8.1171H9.49606V10.5129H15.5236C15.2222 13.899 12.2754 15.3365 9.49606 15.3365C5.94652 15.3365 2.8323 12.6532 2.8323 8.91571C2.8323 5.27404 5.77909 2.46293 9.49606 2.46293C12.3424 2.46293 14.0502 4.18793 14.0502 4.18793L15.825 2.43099C15.825 2.43099 13.5479 0.0351562 9.42909 0.0351562C4.17175 0.0671007 0.0864258 4.31571 0.0864258 8.88377C0.0864258 13.3879 3.90386 17.7643 9.56303 17.7643C14.519 17.7643 18.169 14.506 18.169 9.71432C18.169 8.6921 18.0016 8.1171 18.0016 8.1171ZM24.9667 6.3921C21.4841 6.3921 18.9727 8.9796 18.9727 12.0463C18.9727 15.1129 21.3837 17.7643 25.0002 17.7643C28.2484 17.7643 30.9273 15.3685 30.9273 12.1102C30.9607 8.30877 27.8465 6.3921 24.9667 6.3921ZM25.0002 8.62821C26.708 8.62821 28.3488 9.93793 28.3488 12.0782C28.3488 14.1546 26.7415 15.5282 25.0002 15.5282C23.0915 15.5282 21.5846 14.0907 21.5846 12.0782C21.5846 10.0977 23.0915 8.62821 25.0002 8.62821ZM37.9929 6.3921C34.5103 6.3921 31.9988 8.9796 31.9988 12.0463C31.9988 15.1129 34.4098 17.7643 38.0263 17.7643C41.2745 17.7643 43.9534 15.3685 43.9534 12.1102C43.9869 8.30877 40.8727 6.3921 37.9929 6.3921ZM38.0263 8.62821C39.7341 8.62821 41.375 9.93793 41.375 12.0782C41.375 14.1546 39.7676 15.5282 38.0263 15.5282C36.1176 15.5282 34.6107 14.0907 34.6107 12.0782C34.6442 10.0977 36.1176 8.62821 38.0263 8.62821ZM50.7846 6.3921C47.5699 6.3921 45.0584 9.07543 45.0584 12.0782C45.0584 15.4963 47.9717 17.7643 50.7176 17.7643C52.4254 17.7643 53.3295 17.1254 53.9993 16.3907V17.5088C53.9993 19.4574 52.7603 20.6393 50.8516 20.6393C49.0433 20.6393 48.1057 19.3615 47.8043 18.6268L45.5273 19.5532C46.3309 21.1824 47.9717 22.9074 50.8851 22.9074C54.0662 22.9074 56.5107 20.9907 56.5107 16.9657V6.74349H53.9993V7.70182C53.2291 6.90321 52.191 6.3921 50.7846 6.3921ZM51.019 8.62821C52.5929 8.62821 54.2002 9.90599 54.2002 12.0782C54.2002 14.3143 52.5929 15.5282 50.9855 15.5282C49.2777 15.5282 47.7039 14.2185 47.7039 12.1102C47.6704 9.90599 49.3447 8.62821 51.019 8.62821ZM67.5947 6.36016C64.5809 6.36016 62.036 8.66016 62.036 12.0463C62.036 15.624 64.8488 17.7643 67.8961 17.7643C70.4075 17.7643 71.9814 16.4546 72.8855 15.2727L70.8094 13.9629C70.2736 14.7615 69.3695 15.5282 67.8961 15.5282C66.2217 15.5282 65.4516 14.6657 64.9828 13.8032L72.986 10.6407L72.5841 9.71432C71.7805 7.89349 69.9722 6.36016 67.5947 6.36016ZM67.6951 8.56432C68.8002 8.56432 69.5704 9.10738 69.9052 9.77821L64.5809 11.9185C64.3465 10.2574 65.9873 8.56432 67.6951 8.56432ZM58.252 17.4129H60.864V0.674045H58.252V17.4129Z" fill="#BBC5D4"/>
</g>
<defs>
<clipPath id="clip0_90_1234">
<rect width="73" height="23" fill="white"/>
</clipPath>
</defs>
</svg>
