<svg width="118" height="43" viewBox="0 0 118 43" fill="none" xmlns="http://www.w3.org/2000/svg">
<g id="google logo">
<path id="Vector" d="M16.0142 19.0496V14.9929H29.4999C29.6376 15.7087 29.7191 16.5573 29.7191 17.4796C29.7191 20.5207 28.8931 24.286 26.2297 26.9679C23.6393 29.6837 20.3325 31.1321 15.944 31.1321C7.81604 31.1321 0.983276 24.4699 0.983276 16.2858C0.983276 8.10162 7.81604 1.43945 15.944 1.43945C20.4392 1.43945 23.6393 3.2132 26.0498 5.53011L23.2094 8.39018C21.4844 6.7607 19.1468 5.49333 15.944 5.49333C10.0103 5.49333 5.37175 10.3082 5.37175 16.2858C5.37175 22.2633 10.0103 27.0782 15.944 27.0782C19.793 27.0782 21.9845 25.5223 23.3892 24.1078C24.5327 22.9564 25.2857 21.3071 25.5778 19.0496H16.0142Z" fill="#4285F4"/>
<path id="Vector_2" d="M50.2681 21.5707C50.2681 27.0759 45.9892 31.1297 40.7382 31.1297C35.4872 31.1297 31.2083 27.073 31.2083 21.5707C31.2083 16.0317 35.4872 12.0117 40.7382 12.0117C45.9892 12.0117 50.2681 16.0317 50.2681 21.5707ZM46.0959 21.5707C46.0959 18.1307 43.6151 15.777 40.7382 15.777C37.8612 15.777 35.3804 18.1307 35.3804 21.5707C35.3804 24.974 37.8612 27.3644 40.7382 27.3644C43.6151 27.3672 46.0959 24.9768 46.0959 21.5707Z" fill="#EA4335"/>
<path id="Vector_3" d="M70.7776 21.5707C70.7776 27.0759 66.4987 31.1297 61.2477 31.1297C55.9967 31.1297 51.7178 27.073 51.7178 21.5707C51.7178 16.0317 55.9967 12.0117 61.2477 12.0117C66.4987 12.0117 70.7776 16.0317 70.7776 21.5707ZM66.6054 21.5707C66.6054 18.1307 64.1246 15.777 61.2477 15.777C58.3707 15.777 55.8899 18.1307 55.8899 21.5707C55.8899 24.974 58.3707 27.3644 61.2477 27.3644C64.1246 27.3672 66.6054 24.9768 66.6054 21.5707Z" fill="#FBBC05"/>
<path id="Vector_4" d="M90.4667 12.5869V29.7558C90.4667 36.8168 86.3311 39.7136 81.4397 39.7136C76.8377 39.7136 74.0675 36.599 73.0252 34.0642L76.6579 32.5423C77.3041 34.0982 78.8886 35.9455 81.4397 35.9455C84.5695 35.9455 86.5109 33.9907 86.5109 30.3329V28.958H86.3676C85.432 30.1179 83.6339 31.1306 81.3695 31.1306C76.6214 31.1306 72.2694 26.9664 72.2694 21.6056C72.2694 16.2108 76.6214 12.0098 81.3695 12.0098C83.6339 12.0098 85.432 13.0225 86.3676 14.1456H86.5109V12.584H90.4667V12.5869ZM86.7975 21.6084C86.7975 18.2391 84.5667 15.7779 81.7263 15.7779C78.8493 15.7779 76.4387 18.2391 76.4387 21.6084C76.4387 24.9409 78.8493 27.3653 81.7263 27.3653C84.5695 27.3681 86.7975 24.9409 86.7975 21.6084Z" fill="#4285F4"/>
<path id="Vector_5" d="M97.4905 2.54688V30.5535H93.3184V2.54688H97.4905Z" fill="#34A853"/>
<path id="Vector_6" d="M113.319 24.7213L116.556 26.8939C115.514 28.4499 112.996 31.1317 108.644 31.1317C103.25 31.1317 99.2212 26.9307 99.2212 21.5727C99.2212 15.8865 103.284 12.0137 108.175 12.0137C113.103 12.0137 115.511 15.9601 116.303 18.0959L116.736 19.1822L104.04 24.4695C105.012 26.3876 106.52 27.3664 108.642 27.3664C110.766 27.3664 112.241 26.314 113.319 24.7213ZM103.357 21.2813L111.844 17.7338C111.378 16.54 109.973 15.7054 108.321 15.7054C106.197 15.7054 103.25 17.5867 103.357 21.2813Z" fill="#EA4335"/>
</g>
</svg>
