<svg width="159" height="67" viewBox="0 0 159 67" fill="none" xmlns="http://www.w3.org/2000/svg">
<g id="Tiktok logo">
<g id="Group">
<path id="Vector" d="M24.8438 41.661L24.9796 42.0453C24.9581 42.0013 24.9084 41.8668 24.8438 41.661ZM18.5368 38.9276C18.7753 36.8632 19.5852 35.7069 21.1115 34.5216C23.2952 32.9162 26.0231 33.8243 26.0231 33.8243V28.4364C26.6862 28.4194 27.3496 28.4607 28.0056 28.5601V35.4919C28.0056 35.4919 25.2786 34.5838 23.0948 36.1892C21.5694 37.3745 20.7578 38.5316 20.5202 40.596C20.5127 41.7182 20.714 43.1841 21.6406 44.4516C21.4115 44.3288 21.178 44.1888 20.94 44.0316C18.8987 42.5981 18.5269 40.4482 18.5368 38.9276ZM39.2689 18.4756C37.7667 16.7541 37.1986 15.0159 36.9932 13.7949H38.883C38.883 13.7949 38.5062 16.9965 41.2523 20.1449L41.2904 20.1872C40.5503 19.7004 39.8715 19.1257 39.2689 18.4756Z" fill="#EE1D52"/>
<path id="Vector_2" d="M48.3725 23.3566V30.149C48.3725 30.149 45.961 30.051 44.1764 29.5754C41.6845 28.9114 40.083 27.8937 40.083 27.8937C40.083 27.8937 38.9766 27.1666 38.8871 27.1168V41.149C38.8871 41.9292 38.6826 43.8799 38.059 45.5076C37.245 47.6359 35.9887 49.0329 35.7577 49.3176C35.7577 49.3176 34.2298 51.2069 31.5342 52.4785C29.1045 53.6257 26.9712 53.5966 26.3336 53.6257C26.3336 53.6257 22.646 53.7784 19.3277 51.5223C18.6098 51.0259 17.94 50.4631 17.3269 49.8414L17.3435 49.853C20.6626 52.1091 24.3494 51.9564 24.3494 51.9564C24.9879 51.9273 27.1211 51.9564 29.55 50.8092C32.2439 49.5376 33.7735 47.6484 33.7735 47.6484C34.002 47.3637 35.2641 45.9667 36.0748 43.8376C36.6967 42.2106 36.903 40.26 36.903 39.4789V25.4475C36.9924 25.4981 38.0988 26.2253 38.0988 26.2253C38.0988 26.2253 39.7004 27.2446 42.1922 27.907C43.9776 28.3818 46.3883 28.4806 46.3883 28.4806V23.1582C47.2131 23.3516 47.9162 23.4047 48.3725 23.3566Z" fill="#EE1D52"/>
</g>
<path id="Vector_3" d="M46.3891 23.16V28.4815C46.3891 28.4815 43.9784 28.3827 42.193 27.9079C39.7012 27.2439 38.0996 26.2262 38.0996 26.2262C38.0996 26.2262 36.9932 25.4991 36.9038 25.4485V39.4774C36.9038 40.2584 36.6992 42.2091 36.0756 43.836C35.2616 45.9651 34.0053 47.3621 33.7743 47.6468C33.7743 47.6468 32.2464 49.5361 29.5508 50.8077C27.122 51.9549 24.9887 51.9258 24.3502 51.9549C24.3502 51.9549 20.6634 52.1076 17.3443 49.8515L17.3277 49.8399C16.9775 49.4848 16.6476 49.1101 16.3398 48.7176C15.2806 47.3663 14.6313 45.7701 14.4682 45.3144C14.4677 45.3125 14.4677 45.3105 14.4682 45.3085C14.2049 44.5158 13.6533 42.615 13.7287 40.7731C13.862 37.5226 14.9551 35.5287 15.2442 35.0282C16.0099 33.6658 17.0058 32.4469 18.1873 31.4257C19.2294 30.5437 20.4111 29.8424 21.6837 29.3506C22.4772 29.0201 23.304 28.7765 24.1498 28.6243C24.7684 28.5134 25.3947 28.451 26.023 28.4375V33.8221C26.023 33.8221 23.2952 32.9141 21.1114 34.5194C19.5852 35.7047 18.7753 36.861 18.5368 38.9254C18.5268 40.446 18.8987 42.5959 20.9383 44.0311C21.1757 44.1888 21.4093 44.3288 21.6389 44.4511C21.9955 44.9338 22.4289 45.3544 22.9217 45.6962C24.9142 47.0152 26.5837 47.1073 28.7186 46.2507C30.1438 45.6854 31.2112 44.3946 31.7172 42.9636C32.0294 42.0705 32.0253 41.1707 32.0253 40.2418V13.7969H36.994C37.1994 15.0179 37.7675 16.756 39.2697 18.4776C39.8723 19.1276 40.5511 19.7023 41.2912 20.1892C41.5098 20.4258 42.6278 21.5945 44.0629 22.3133C44.8033 22.6842 45.5838 22.9683 46.3891 23.16Z" fill="black"/>
<path id="Vector_4" d="M12.4906 43.6602V43.6651L12.6132 44.0146C12.5999 43.9739 12.5535 43.8502 12.4906 43.6602Z" fill="#69C9D0"/>
<path id="Vector_5" d="M21.6836 29.3501C20.411 29.8419 19.2293 30.5433 18.1873 31.4253C17.0056 32.4488 16.0103 33.6703 15.2458 35.0352C14.9567 35.5333 13.8636 37.5296 13.7303 40.7801C13.6549 42.622 14.2065 44.5228 14.4698 45.3156C14.4693 45.3175 14.4693 45.3195 14.4698 45.3214C14.6354 45.7729 15.2822 47.3691 16.3414 48.7246C16.6492 49.1171 16.9791 49.4918 17.3293 49.8469C16.2065 49.0685 15.2052 48.1275 14.358 47.0545C13.308 45.7156 12.6604 44.1352 12.4914 43.6687L12.4873 43.6587V43.6521C12.2239 42.8619 11.6707 40.9594 11.7478 39.115C11.8811 35.8645 12.9742 33.8706 13.2632 33.3701C14.0276 32.005 15.0229 30.7835 16.2047 29.7602C17.2466 28.8778 18.4283 28.1764 19.7011 27.685C20.4946 27.3545 21.3215 27.111 22.1672 26.9587C23.4416 26.7353 24.7434 26.716 26.0238 26.9014V28.4371C25.3957 28.4486 24.7694 28.5091 24.1506 28.618C23.3043 28.7721 22.4772 29.0176 21.6836 29.3501Z" fill="#69C9D0"/>
<path id="Vector_6" d="M36.9931 13.7959H32.0244V40.2425C32.0244 41.1714 32.0285 42.0687 31.7163 42.9643C31.2145 44.3937 30.147 45.6844 28.7243 46.2572C26.5886 47.1171 24.9191 47.0217 22.9274 45.7027C22.4346 45.361 22.0013 44.9403 21.6447 44.4576C23.3415 45.3649 24.8603 45.3491 26.7418 44.5921C28.1562 44.0152 29.2328 42.7244 29.7296 41.2942C30.0427 40.4011 30.0385 39.5013 30.0385 38.5733V12.125H36.8995C36.8995 12.125 36.8217 12.7832 36.9931 13.7959ZM46.389 21.6882V23.159C45.5835 22.9674 44.8026 22.6833 44.062 22.3124C42.6269 21.5935 41.5089 20.4248 41.2903 20.1882C41.5438 20.3552 41.807 20.5068 42.0786 20.6423C43.8235 21.5155 45.5377 21.777 46.389 21.6882Z" fill="#69C9D0"/>
<path id="Vector_7" d="M119.806 35.48C119.806 35.8583 119.862 36.2346 119.972 36.5965C119.978 36.6221 119.986 36.6473 119.995 36.672C120.26 37.528 120.792 38.2766 121.512 38.8082C122.232 39.3398 123.102 39.6264 123.997 39.6262V43.8761C121.934 43.8761 120.456 43.9483 118.207 42.6152C115.64 41.0946 114.198 38.3139 114.198 35.4261C114.198 32.4495 115.811 29.4654 118.546 28.0285C120.529 26.986 122.037 26.9785 123.997 26.9785V31.2259C122.885 31.2262 121.82 31.6688 121.034 32.4564C120.248 33.244 119.807 34.3122 119.806 35.4261V35.48Z" fill="#69C9D0"/>
<path id="Vector_8" d="M128.219 35.48C128.22 35.8584 128.164 36.2347 128.054 36.5965C128.048 36.6222 128.04 36.6474 128.031 36.672C127.766 37.5282 127.234 38.2769 126.514 38.8085C125.794 39.3401 124.923 39.6267 124.029 39.6262V43.8761C126.093 43.8761 127.57 43.9483 129.818 42.6152C132.386 41.0946 133.829 38.3139 133.829 35.4261C133.829 32.4495 132.215 29.4654 129.481 28.0285C127.498 26.986 125.988 26.9785 124.029 26.9785V31.2259C125.14 31.2259 126.206 31.6684 126.992 32.4561C127.778 33.2437 128.22 34.312 128.22 35.4261L128.219 35.48Z" fill="#EE1D52"/>
<path id="Vector_9" d="M59.1331 23.125H74.6529L73.2186 27.4056H69.1608V43.7861H64.1614V27.4056H59.1331V23.125ZM100.266 23.125V27.4056H105.294V43.7861H110.29V27.4056H114.348L115.786 23.125H100.266ZM78.0292 28.0033C78.5073 28.0033 78.9747 27.8612 79.3722 27.5949C79.7697 27.3287 80.0795 26.9503 80.2625 26.5075C80.4455 26.0648 80.4933 25.5776 80.4001 25.1076C80.3068 24.6376 80.0766 24.2059 79.7385 23.867C79.4004 23.5282 78.9697 23.2974 78.5008 23.2039C78.0319 23.1104 77.5459 23.1584 77.1042 23.3418C76.6625 23.5252 76.2849 23.8358 76.0193 24.2342C75.7537 24.6327 75.6119 25.1011 75.6119 25.5803C75.6119 26.2229 75.8666 26.8392 76.3199 27.2936C76.7733 27.748 77.3881 28.0033 78.0292 28.0033ZM75.6078 43.7861H80.5078V29.7157H75.6078V43.7861ZM98.1328 27.8821H92.4038L87.4657 32.8367V23.1408H82.5988L82.5822 43.7861H87.498V38.4065L89.0292 37.0178L93.7992 43.7861H99.0536L92.1438 33.8876L98.1328 27.8821ZM145.132 33.8876L151.124 27.8821H145.395L140.457 32.8367V23.1408H135.589L135.573 43.7861H140.489V38.4065L142.023 37.0178L146.794 43.7861H152.044L145.132 33.8876ZM132.536 35.4265C132.536 40.0923 128.712 43.8749 123.994 43.8749C119.276 43.8749 115.453 40.0923 115.453 35.4265C115.453 30.7607 119.277 26.9782 123.994 26.9782C128.711 26.9782 132.538 30.7616 132.538 35.4265H132.536ZM128.185 35.4265C128.185 34.5958 127.939 33.7838 127.478 33.0931C127.018 32.4024 126.364 31.864 125.598 31.5461C124.832 31.2282 123.99 31.1451 123.177 31.3071C122.364 31.4692 121.617 31.8692 121.031 32.4566C120.445 33.044 120.046 33.7924 119.884 34.6071C119.723 35.4219 119.806 36.2664 120.123 37.0338C120.44 37.8013 120.977 38.4573 121.666 38.9188C122.355 39.3803 123.166 39.6266 123.994 39.6266C124.545 39.627 125.09 39.5186 125.598 39.3076C126.107 39.0967 126.569 38.7873 126.959 38.3973C127.348 38.0072 127.657 37.5441 127.867 37.0344C128.078 36.5246 128.186 35.9783 128.186 35.4265H128.185Z" fill="black"/>
</g>
</svg>
