<svg width="97" height="41" viewBox="0 0 97 41" fill="none" xmlns="http://www.w3.org/2000/svg">
<g id="Tiktok logo">
<g id="Group">
<path id="Vector" d="M15.1559 25.4938L15.2387 25.7289C15.2256 25.702 15.1953 25.6197 15.1559 25.4938ZM11.3082 23.8211C11.4537 22.5578 11.9478 21.8502 12.8789 21.1249C14.2111 20.1425 15.8753 20.6982 15.8753 20.6982V17.4011C16.2799 17.3907 16.6846 17.416 17.0848 17.4768V21.7187C17.0848 21.7187 15.4211 21.163 14.0889 22.1454C13.1583 22.8707 12.6632 23.5788 12.5182 24.8421C12.5136 25.5288 12.6364 26.4258 13.2017 27.2015C13.062 27.1263 12.9195 27.0406 12.7743 26.9445C11.529 26.0672 11.3022 24.7516 11.3082 23.8211ZM23.9561 11.3057C23.0397 10.2522 22.6931 9.1886 22.5678 8.44141H23.7207C23.7207 8.44141 23.4908 10.4006 25.1661 12.3272L25.1893 12.3531C24.7378 12.0552 24.3237 11.7035 23.9561 11.3057Z" fill="#A0ABBD"/>
<path id="Vector_2" d="M29.5101 14.2933V18.4498C29.5101 18.4498 28.0389 18.3899 26.9502 18.0988C25.43 17.6925 24.4529 17.0697 24.4529 17.0697C24.4529 17.0697 23.778 16.6248 23.7234 16.5943V25.1812C23.7234 25.6586 23.5986 26.8523 23.2182 27.8484C22.7216 29.1508 21.9552 30.0057 21.8142 30.1799C21.8142 30.1799 20.8821 31.336 19.2377 32.1142C17.7554 32.8161 16.454 32.7984 16.065 32.8161C16.065 32.8161 13.8153 32.9096 11.7909 31.529C11.353 31.2252 10.9443 30.8809 10.5703 30.5004L10.5804 30.5075C12.6053 31.8881 14.8545 31.7946 14.8545 31.7946C15.244 31.7769 16.5454 31.7946 18.0272 31.0927C19.6706 30.3145 20.6037 29.1584 20.6037 29.1584C20.7432 28.9842 21.5131 28.1293 22.0077 26.8264C22.3871 25.8308 22.5129 24.6371 22.5129 24.1592V15.5728C22.5675 15.6038 23.2425 16.0487 23.2425 16.0487C23.2425 16.0487 24.2195 16.6725 25.7397 17.0778C26.8289 17.3684 28.2996 17.4288 28.2996 17.4288V14.1719C28.8028 14.2902 29.2317 14.3227 29.5101 14.2933Z" fill="#A0ABBD"/>
</g>
<path id="Vector_3" d="M28.3003 14.173V17.4295C28.3003 17.4295 26.8296 17.369 25.7404 17.0785C24.2202 16.6721 23.2431 16.0494 23.2431 16.0494C23.2431 16.0494 22.5682 15.6044 22.5136 15.5734V24.1583C22.5136 24.6363 22.3888 25.8299 22.0084 26.8255C21.5118 28.1284 20.7454 28.9833 20.6044 29.1575C20.6044 29.1575 19.6723 30.3136 18.0279 31.0918C16.5461 31.7938 15.2447 31.776 14.8552 31.7938C14.8552 31.7938 12.606 31.8872 10.5811 30.5066L10.571 30.4995C10.3573 30.2822 10.1561 30.053 9.96829 29.8128C9.32213 28.9858 8.92605 28.009 8.82652 27.7302C8.82622 27.729 8.82622 27.7278 8.82652 27.7266C8.66586 27.2415 8.32939 26.0783 8.37537 24.9512C8.45671 22.9621 9.12358 21.742 9.2999 21.4357C9.76707 20.602 10.3746 19.8561 11.0954 19.2312C11.7311 18.6914 12.452 18.2622 13.2284 17.9613C13.7125 17.759 14.2169 17.61 14.7329 17.5168C15.1103 17.449 15.4924 17.4108 15.8757 17.4026V20.6976C15.8757 20.6976 14.2115 20.1419 12.8793 21.1243C11.9482 21.8497 11.4541 22.5572 11.3086 23.8205C11.3025 24.7511 11.5294 26.0666 12.7737 26.9449C12.9185 27.0414 13.061 27.1271 13.2011 27.2019C13.4187 27.4973 13.6831 27.7547 13.9837 27.9638C15.1992 28.771 16.2177 28.8273 17.5201 28.3031C18.3896 27.9572 19.0408 27.1674 19.3495 26.2917C19.54 25.7451 19.5374 25.1945 19.5374 24.6261V8.44336H22.5687C22.694 9.19055 23.0406 10.2542 23.957 11.3077C24.3246 11.7055 24.7387 12.0571 25.1902 12.3551C25.3236 12.4998 26.0056 13.215 26.8812 13.6549C27.3328 13.8819 27.809 14.0557 28.3003 14.173Z" fill="#BBC5D4"/>
<path id="Vector_4" d="M7.62012 26.7168V26.7198L7.69489 26.9337C7.6868 26.9088 7.65851 26.8331 7.62012 26.7168Z" fill="#E0E6F1"/>
<path id="Vector_5" d="M13.2285 17.9603C12.4522 18.2613 11.7313 18.6905 11.0955 19.2302C10.3747 19.8566 9.76748 20.604 9.30104 21.4393C9.12472 21.7441 8.45785 22.9657 8.37651 24.9548C8.33054 26.0819 8.667 27.2451 8.82766 27.7302C8.82736 27.7314 8.82736 27.7326 8.82766 27.7338C8.9287 28.0101 9.32327 28.9869 9.96943 29.8164C10.1573 30.0566 10.3585 30.2859 10.5721 30.5031C9.88718 30.0268 9.2763 29.451 8.75946 28.7944C8.11885 27.9751 7.72378 27.0079 7.62072 26.7225L7.61819 26.7164V26.7123C7.45754 26.2287 7.12006 25.0645 7.16704 23.9359C7.24838 21.9467 7.91526 20.7266 8.09157 20.4203C8.55787 19.585 9.16508 18.8375 9.88607 18.2113C10.5217 17.6713 11.2426 17.2421 12.0191 16.9414C12.5032 16.7391 13.0076 16.5901 13.5236 16.4969C14.301 16.3602 15.0952 16.3484 15.8763 16.4619V17.4016C15.4931 17.4087 15.111 17.4457 14.7335 17.5123C14.2173 17.6066 13.7127 17.7568 13.2285 17.9603Z" fill="#E0E6F1"/>
<path id="Vector_6" d="M22.5681 8.44242H19.5369V24.6262C19.5369 25.1946 19.5394 25.7437 19.3489 26.2917C19.0428 27.1664 18.3916 27.9563 17.5236 28.3068C16.2207 28.833 15.2022 28.7746 13.9872 27.9675C13.6865 27.7583 13.4221 27.5009 13.2046 27.2055C14.2398 27.7607 15.1663 27.7511 16.3141 27.2878C17.177 26.9348 17.8338 26.1449 18.1369 25.2697C18.3279 24.7232 18.3254 24.1726 18.3254 23.6047V7.41992H22.511C22.511 7.41992 22.4635 7.82272 22.5681 8.44242ZM28.3002 13.272V14.1721C27.8088 14.0548 27.3324 13.881 26.8806 13.654C26.0051 13.2141 25.323 12.4989 25.1896 12.3541C25.3443 12.4563 25.5049 12.5491 25.6706 12.632C26.7351 13.1663 27.7809 13.3264 28.3002 13.272Z" fill="#E0E6F1"/>
<path id="Vector_7" d="M73.0897 21.7122C73.0896 21.9437 73.1237 22.1739 73.1908 22.3954C73.1946 22.411 73.1993 22.4265 73.2049 22.4416C73.3666 22.9654 73.6908 23.4235 74.13 23.7488C74.5693 24.0741 75.1006 24.2495 75.6461 24.2494V26.8501C74.3876 26.8501 73.4858 26.8943 72.1142 26.0785C70.548 25.1479 69.668 23.4463 69.668 21.6792C69.668 19.8577 70.6521 18.0316 72.3208 17.1523C73.5303 16.5143 74.4508 16.5098 75.6461 16.5098V19.1089C74.9682 19.1091 74.318 19.3799 73.8386 19.8619C73.3593 20.3439 73.0899 20.9975 73.0897 21.6792V21.7122Z" fill="#E0E6F1"/>
<path id="Vector_8" d="M78.2219 21.7122C78.2222 21.9437 78.1882 22.174 78.1208 22.3954C78.1173 22.4111 78.1126 22.4266 78.1067 22.4416C77.9452 22.9655 77.621 23.4237 77.1817 23.749C76.7424 24.0743 76.2111 24.2497 75.6655 24.2494V26.8501C76.9245 26.8501 77.8258 26.8943 79.1974 26.0785C80.7636 25.1479 81.6442 23.4463 81.6442 21.6792C81.6442 19.8577 80.6595 18.0316 78.9913 17.1523C77.7818 16.5143 76.8609 16.5098 75.6655 16.5098V19.1089C76.3436 19.1089 76.9938 19.3797 77.4733 19.8617C77.9528 20.3437 78.2223 20.9974 78.2224 21.6792L78.2219 21.7122Z" fill="#A0ABBD"/>
<path id="Vector_9" d="M36.0752 14.1504H45.5433L44.6683 16.7699H42.1928V26.7937H39.1428V16.7699H36.0752V14.1504ZM61.1689 14.1504V16.7699H64.2365V26.7937H67.2844V16.7699H69.76L70.637 14.1504H61.1689ZM47.603 17.1356C47.8947 17.1356 48.1798 17.0486 48.4223 16.8857C48.6649 16.7228 48.8539 16.4912 48.9655 16.2203C49.0771 15.9494 49.1063 15.6513 49.0494 15.3636C48.9925 15.076 48.8521 14.8118 48.6458 14.6045C48.4396 14.3971 48.1768 14.2559 47.8907 14.1987C47.6047 14.1415 47.3082 14.1708 47.0387 14.2831C46.7692 14.3953 46.5389 14.5853 46.3769 14.8292C46.2148 15.073 46.1283 15.3597 46.1283 15.6529C46.1283 16.0461 46.2837 16.4233 46.5603 16.7013C46.8368 16.9794 47.2119 17.1356 47.603 17.1356ZM46.1258 26.7937H49.1151V18.1835H46.1258V26.7937ZM59.8675 17.0614H56.3724L53.3599 20.0934V14.16H50.3908L50.3807 26.7937H53.3796V23.5017L54.3137 22.6519L57.2237 26.7937H60.4293L56.2138 20.7365L59.8675 17.0614ZM88.5401 20.7365L92.1953 17.0614H88.7002L85.6877 20.0934V14.16H82.7181L82.7085 26.7937H85.7074V23.5017L86.6435 22.6519L89.554 26.7937H92.7565L88.5401 20.7365ZM80.8559 21.6782C80.8559 24.5334 78.5228 26.8481 75.6446 26.8481C72.7665 26.8481 70.4339 24.5334 70.4339 21.6782C70.4339 18.823 72.767 16.5083 75.6446 16.5083C78.5223 16.5083 80.8569 18.8235 80.8569 21.6782H80.8559ZM78.201 21.6782C78.201 21.1699 78.0511 20.6729 77.7702 20.2503C77.4893 19.8276 77.09 19.4982 76.6229 19.3036C76.1558 19.1091 75.6418 19.0582 75.1459 19.1574C74.65 19.2565 74.1945 19.5013 73.837 19.8608C73.4795 20.2202 73.236 20.6782 73.1374 21.1768C73.0388 21.6753 73.0894 22.1921 73.2829 22.6618C73.4764 23.1314 73.804 23.5328 74.2244 23.8153C74.6448 24.0977 75.139 24.2484 75.6446 24.2484C75.9804 24.2486 76.313 24.1823 76.6233 24.0532C76.9336 23.9241 77.2155 23.7348 77.453 23.4961C77.6905 23.2574 77.8789 22.974 78.0074 22.6621C78.1359 22.3502 78.2021 22.0158 78.202 21.6782H78.201Z" fill="#BBC5D4"/>
</g>
</svg>
