<svg width="91" height="34" viewBox="0 0 91 34" fill="none" xmlns="http://www.w3.org/2000/svg">
<g id="verde" clip-path="url(#clip0_96_15753)">
<g id="Group">
<g id="svg_2">
<g id="svg_3">
<path id="svg_4" d="M20.4075 28.6429C20.4075 26.5171 22.1101 24.8555 24.3012 24.8555C25.4198 24.8555 26.4711 25.3302 27.1224 26.1168C27.2782 26.2939 27.3561 26.4711 27.3561 26.6695C27.3561 27.0344 27.0481 27.3462 26.6587 27.3462C26.4499 27.3462 26.2481 27.247 26.0817 27.0592C25.6074 26.5065 25.0092 26.2408 24.3012 26.2408C22.9313 26.2408 21.9437 27.247 21.9437 28.6536C21.9437 30.0495 22.9278 31.0451 24.3012 31.0451C24.9986 31.0451 25.5862 30.7794 26.0711 30.2266C26.2481 30.0389 26.4357 29.9397 26.6587 29.9397C27.0446 29.9397 27.3454 30.2514 27.3454 30.6164C27.3454 30.7935 27.2782 30.9707 27.1118 31.1691C26.4711 31.9556 25.4198 32.4304 24.2906 32.4304C22.0995 32.4304 20.4075 30.7687 20.4075 28.6429Z" fill="#B4C0D3"/>
<path id="svg_5" d="M37.6604 31.7112C37.6604 32.1115 37.3525 32.4304 36.9312 32.4304C36.6091 32.4304 36.3684 32.2426 36.2233 31.8989L35.9153 31.1478H32.8286L32.5206 31.8989C32.3861 32.2426 32.1454 32.4304 31.8233 32.4304C31.4021 32.4304 31.0835 32.108 31.0835 31.7112C31.0835 31.6013 31.1154 31.4667 31.172 31.3108L33.6711 25.3657C33.8021 25.0326 34.0463 24.8555 34.379 24.8555C34.7118 24.8555 34.956 25.0326 35.087 25.3657L37.5755 31.3108C37.6392 31.4667 37.6604 31.6013 37.6604 31.7112ZM33.3136 29.9184H35.4162L34.3755 27.0628L33.3136 29.9184Z" fill="#B4C0D3"/>
<path id="svg_6" d="M41.6533 31.4458C41.4763 31.2687 41.3772 31.0809 41.3772 30.8718C41.3878 30.4715 41.7099 30.2058 42.0639 30.2058C42.1949 30.2058 42.34 30.2518 42.4498 30.351C42.7471 30.6593 43.2674 31.1021 44.0108 31.1021C44.6621 31.1021 45.0515 30.7939 45.0515 30.2943C45.0515 29.8727 44.7966 29.6956 44.1241 29.3873L43.3382 29.033C42.1772 28.5016 41.5683 27.8709 41.5683 26.9285C41.5683 25.6991 42.609 24.8594 43.9896 24.8594C45.0833 24.8594 45.7276 25.3696 46.0356 25.7239C46.1913 25.8904 46.2338 26.0569 46.2338 26.1986C46.2338 26.5742 45.8904 26.8647 45.5471 26.8647C45.4161 26.8647 45.271 26.8187 45.1364 26.7088C44.8391 26.4431 44.5064 26.188 43.986 26.188C43.4551 26.188 43.0798 26.4431 43.0798 26.8966C43.0798 27.2615 43.2781 27.4387 43.9329 27.7363L44.7612 28.1012C45.9789 28.6433 46.563 29.2421 46.563 30.2376C46.563 31.5875 45.4692 32.4308 44.0073 32.4308C43.1471 32.4308 42.1949 32.0446 41.6533 31.4458Z" fill="#B4C0D3"/>
<path id="svg_7" d="M50.7434 31.6651V25.6208C50.7434 25.1885 51.0514 24.8555 51.4938 24.8555C51.9257 24.8555 52.2337 25.1885 52.2337 25.6208V31.6651C52.2337 32.0973 51.9257 32.4304 51.4938 32.4304C51.0549 32.4304 50.7434 32.0973 50.7434 31.6651Z" fill="#B4C0D3"/>
<path id="svg_8" d="M62.9877 25.6208V31.6757C62.9877 32.0973 62.6798 32.4268 62.2585 32.4268C61.8939 32.4268 61.7169 32.2178 61.5187 31.9733L58.2656 27.7891V31.6651C58.2656 32.0973 57.9435 32.4304 57.5258 32.4304C57.094 32.4304 56.7754 32.0973 56.7754 31.6651V25.6101C56.7754 25.1885 57.0975 24.8555 57.5046 24.8555C57.8798 24.8555 58.0462 25.0645 58.2692 25.3444L61.5116 29.4968L61.501 25.6208C61.501 25.1885 61.8231 24.8555 62.2514 24.8555C62.6656 24.859 62.9877 25.1885 62.9877 25.6208Z" fill="#B4C0D3"/>
<path id="svg_9" d="M74.8779 28.6429C74.8779 30.7581 73.1646 32.4304 70.9841 32.4304C68.8036 32.4304 67.1116 30.7687 67.1116 28.6429C67.1116 26.5171 68.8142 24.8555 70.9841 24.8555C73.1611 24.859 74.8779 26.5278 74.8779 28.6429ZM68.6478 28.6429C68.6478 30.0495 69.6213 31.0451 70.9912 31.0451C72.3505 31.0451 73.3345 30.0389 73.3345 28.6429C73.3345 27.247 72.3505 26.2408 70.9912 26.2408C69.6213 26.2408 68.6478 27.2364 68.6478 28.6429Z" fill="#B4C0D3"/>
</g>
<path id="svg_10" d="M19.0551 3.55168C19.0551 4.01581 18.963 4.51183 18.7754 4.85196L12.3649 20.4518C11.8693 21.6316 11.0339 22.2197 9.82331 22.2197C8.61624 22.2197 7.77731 21.6316 7.28174 20.4518L0.871196 4.8555C0.683587 4.51537 0.591553 4.01936 0.591553 3.55522C0.591553 2.09905 1.70658 1.01136 3.22515 1.01136C4.37204 1.01136 5.23929 1.66327 5.73486 2.9352L9.82331 13.1355L13.9118 2.93166C14.4073 1.65972 15.2746 1.00781 16.4215 1.00781C17.94 1.01136 19.0551 2.09551 19.0551 3.55168Z" fill="#B4C0D3"/>
<path id="svg_11" d="M54.4494 19.2794C54.4494 20.5832 53.4123 21.8906 52.0813 21.8906C51.0902 21.8906 50.184 21.4584 49.4937 20.5832L45.3203 15.5203H45.2283H42.5345V19.5522C42.5345 21.1041 41.3876 22.2484 39.8691 22.2484C38.3505 22.2484 37.2036 21.1005 37.2036 19.5522V4.11187C37.2036 2.56004 38.3505 1.41211 39.8974 1.41211H45.2248C49.9008 1.41211 53.1256 4.26422 53.1256 8.42015C53.1256 10.7444 52.1026 12.7001 50.3681 13.972L53.6424 17.4548C54.2335 18.0713 54.4494 18.6311 54.4494 19.2794ZM42.531 10.8684H45.2566C46.7433 10.8684 47.7026 9.90821 47.7026 8.44849C47.7026 7.02067 46.7433 6.06052 45.2566 6.06052H42.531V10.8684Z" fill="#B4C0D3"/>
<path id="svg_12" d="M74.2581 11.584C74.2581 17.6 69.6103 21.8764 63.1042 21.8764H58.676C57.1255 21.8764 55.9822 20.7285 55.9822 19.1802V4.11187C55.9822 2.56004 57.1291 1.41211 58.676 1.41211H63.1042C69.7024 1.41211 74.2581 5.56804 74.2581 11.584ZM61.3096 6.24829V17.0686H63.0759C66.513 17.0686 68.8068 14.8684 68.8068 11.5805C68.8068 8.26426 66.6369 6.24829 63.0759 6.24829H61.3096Z" fill="#B4C0D3"/>
<g id="svg_13">
<path id="svg_14" d="M25.993 13.4766V17.0409H32.4885C33.9151 17.0409 34.9345 18.0648 34.9345 19.4289C34.9345 20.8248 33.8797 21.8487 32.4885 21.8487H23.363C21.8125 21.8487 20.6692 20.7008 20.6692 19.1525V4.08062C20.6692 2.52879 21.8161 1.38086 23.363 1.38086H32.7186C34.1451 1.38086 35.1646 2.40478 35.1646 3.76884C35.1646 5.16478 34.1097 6.1887 32.7186 6.1887H25.993V9.00892V13.4766Z" fill="#B4C0D3"/>
<path id="svg_15" d="M29.1856 9.05563V9.06271C28.1626 9.36741 27.398 10.2921 27.3556 11.4188C27.3485 11.5995 27.3626 11.7731 27.391 11.9432C27.8476 11.6137 28.683 11.1921 29.6139 10.9122C30.46 10.6571 31.3838 10.5153 32.1697 10.6712C31.5537 10.82 30.6299 11.1885 29.7839 11.6562C28.9909 12.0955 28.2688 12.6199 27.929 13.1301C28.3786 13.6828 29.0511 14.0477 29.8157 14.076C29.9927 14.0831 30.1662 14.0725 30.3361 14.0442C32.8741 13.6438 34.4811 10.9795 34.8705 9.69691C32.5272 8.63401 30.4777 8.6659 29.1856 9.05563Z" fill="#B4C0D3"/>
</g>
<g id="svg_16">
<path id="svg_17" d="M81.1744 13.4766V17.0409H87.6699C89.0965 17.0409 90.1159 18.0648 90.1159 19.4289C90.1159 20.8248 89.0611 21.8487 87.6699 21.8487H78.5444C76.9939 21.8487 75.8506 20.7008 75.8506 19.1525V4.08062C75.8506 2.52879 76.9975 1.38086 78.5444 1.38086H87.9C89.3265 1.38086 90.346 2.40478 90.346 3.76884C90.346 5.16478 89.2911 6.1887 87.9 6.1887H81.178V9.00892L81.1744 13.4766Z" fill="#B4C0D3"/>
<path id="svg_18" d="M84.367 9.05563V9.06271C83.344 9.36741 82.5794 10.2921 82.537 11.4188C82.5299 11.5995 82.544 11.7731 82.5724 11.9432C83.029 11.6137 83.8644 11.1921 84.7953 10.9122C85.6414 10.6571 86.5652 10.5153 87.3511 10.6712C86.7351 10.82 85.8113 11.1885 84.9653 11.6562C84.1723 12.0955 83.4502 12.6199 83.1104 13.1301C83.56 13.6828 84.2325 14.0477 84.9971 14.076C85.1741 14.0831 85.3475 14.0725 85.5175 14.0442C88.0555 13.6438 89.6625 10.9795 90.0519 9.69691C87.7086 8.63401 85.659 8.6659 84.367 9.05563Z" fill="#B4C0D3"/>
</g>
</g>
</g>
</g>
<defs>
<clipPath id="clip0_96_15753">
<rect width="90.8556" height="33.0384" fill="white" transform="translate(0 0.402344)"/>
</clipPath>
</defs>
</svg>
