<svg width="98" height="42" viewBox="0 0 98 42" fill="none" xmlns="http://www.w3.org/2000/svg">
<g id="vulkan_bet" clip-path="url(#clip0_96_15772)">
<path id="&#208;&#159;&#209;&#128;&#209;&#143;&#208;&#188;&#208;&#190;&#209;&#131;&#208;&#179;&#208;&#190;&#208;&#187;&#209;&#140;&#208;&#189;&#208;&#184;&#208;&#186; 14556" d="M54.2996 12.9023H0.372314V28.7744H54.2996V12.9023Z" fill="#B4C0D3"/>
<path id="&#208;&#159;&#209;&#128;&#209;&#143;&#208;&#188;&#208;&#190;&#209;&#131;&#208;&#179;&#208;&#190;&#208;&#187;&#209;&#140;&#208;&#189;&#208;&#184;&#208;&#186; 14557" d="M97.8358 12.9023H77.8123V28.7744H97.8358V12.9023Z" fill="#B4C0D3"/>
<path id="&#208;&#154;&#208;&#190;&#208;&#189;&#209;&#130;&#209;&#131;&#209;&#128; 13001" d="M77.126 12.9011L70.4296 0.685547L62.1225 12.9011H46.4758L46.4555 28.7735H51.5557L43.8901 41.1586H45.8062L69.6694 22.2062L74.5877 28.7748H80.0425L80.0627 12.9024L77.126 12.9011Z" fill="#B4C0D3"/>
<path id="&#208;&#154;&#208;&#190;&#208;&#189;&#209;&#130;&#209;&#131;&#209;&#128; 13002" d="M18.8108 20.4447V15.9414H22.7766V20.4447C22.7766 21.5639 23.1629 22.6828 25.0584 22.6828H25.1066C26.9539 22.6828 27.3281 21.5639 27.3281 20.4447V15.9414H31.2939V20.4447C31.2939 22.3676 30.7551 25.883 25.4434 25.883H24.6056C19.0888 25.883 18.8108 22.3666 18.8108 20.4447Z" fill="white"/>
<path id="&#208;&#154;&#208;&#190;&#208;&#189;&#209;&#130;&#209;&#131;&#209;&#128; 13003" d="M37.4037 15.9414V22.6831H43.0603V25.738H33.2583V15.9414H37.4037Z" fill="white"/>
<path id="&#208;&#154;&#208;&#190;&#208;&#189;&#209;&#130;&#209;&#131;&#209;&#128; 13004" d="M85.16 20.4714V25.7383H81.1072V15.9414H85.3181L89.9945 20.9583V15.9414H94.0477V25.7383H90.0868L85.16 20.4714Z" fill="white"/>
<path id="&#208;&#154;&#208;&#190;&#208;&#189;&#209;&#130;&#209;&#131;&#209;&#128; 13005" d="M53.5322 20.5411L58.0384 15.9414H52.7818L48.8988 19.9457V15.9417H44.4219V25.7344H48.8988V21.634L52.5497 25.7344H57.9488L53.5012 20.5731L53.5322 20.5411Z" fill="white"/>
<path id="&#208;&#154;&#208;&#190;&#208;&#189;&#209;&#130;&#209;&#131;&#209;&#128; 13006" d="M13.0473 15.9414L10.244 23.1678L10.24 23.1726H10.2485L10.244 23.1678L7.45657 15.9414H2.979L6.89883 25.7341H13.6618L17.6928 15.9414H13.0473Z" fill="white"/>
<path id="&#208;&#154;&#208;&#190;&#208;&#189;&#209;&#130;&#209;&#131;&#209;&#128; 13007" d="M70.2155 6.93164L52.5788 31.8321C52.5609 31.8583 52.5504 31.8889 52.5486 31.9205C52.5468 31.9522 52.5537 31.9837 52.5685 32.0118C52.5833 32.0399 52.6054 32.0634 52.6325 32.0798C52.6597 32.0962 52.6908 32.1049 52.7225 32.1049C52.7676 32.105 52.8109 32.0875 52.8432 32.056L69.8263 17.0962L76.0143 25.7367H79.7177L70.2155 6.93164Z" fill="white"/>
<path id="&#208;&#154;&#208;&#190;&#208;&#189;&#209;&#130;&#209;&#131;&#209;&#128; 13008" d="M65.2457 33.5137H71.7C73.7246 33.5137 74.4437 34.2633 74.4437 35.2714C74.4437 36.3795 73.3354 36.8638 72.6046 36.9153C73.2829 37.0177 74.1973 37.4593 74.1973 38.6101C74.1973 39.8946 73.4573 41.1582 70.6722 41.1582H63.7563L65.2457 33.5137ZM67.4141 38.117L67.2084 39.1749H70.0656C70.8055 39.1749 70.9287 38.8464 70.9287 38.6101C70.9287 38.3641 70.8358 38.117 70.1888 38.117H67.4141ZM67.9383 35.4151L67.7534 36.3707H70.3736C71.0005 36.3707 71.1651 36.1341 71.1651 35.8567C71.1651 35.538 70.9695 35.4151 70.4867 35.4151H67.9383Z" fill="#758296"/>
<path id="&#208;&#154;&#208;&#190;&#208;&#189;&#209;&#130;&#209;&#131;&#209;&#128; 13009" d="M83.9577 33.5137L83.5773 35.4366H78.8402L78.6772 36.3H83.2708L82.8797 38.2627H78.2965L78.1117 39.2183H82.9207L82.5403 41.1601H74.6472L76.1373 33.5156L83.9577 33.5137Z" fill="#758296"/>
<path id="&#208;&#154;&#208;&#190;&#208;&#189;&#209;&#130;&#209;&#131;&#209;&#128; 13010" d="M87.5014 35.7951H84.4373L84.8793 33.5137H94.046L93.6039 35.7951H90.5519L89.5143 41.1585H86.4501L87.5014 35.7951Z" fill="#758296"/>
</g>
<defs>
<clipPath id="clip0_96_15772">
<rect width="97.4633" height="40.472" fill="white" transform="translate(0.372314 0.685547)"/>
</clipPath>
</defs>
</svg>
