<svg width="97" height="42" viewBox="0 0 97 42" fill="none" xmlns="http://www.w3.org/2000/svg">
<g id="vulkan-vegas" clip-path="url(#clip0_96_15785)">
<g id="VulkanVegas">
<path id="Path_12987" d="M81.9355 11.5752L81.9127 13.7192L80.3402 11.5752H73.5859L69.5159 2.01953L64.3898 11.5752H54.7237L53.4309 13.5553L53.41 11.5752H44.8708V18.5982L41.5877 18.6015V11.5737H17.0019L14.308 16.399L11.5595 11.5737H2.45898L10.8104 26.2827H17.8493L20.06 22.3683C20.3141 22.8852 20.6344 23.3668 21.0128 23.8012C21.5735 24.4622 22.2553 25.0105 23.0216 25.4167C23.8358 25.8231 24.7174 26.0782 25.6232 26.1695C26.3665 26.2605 27.1145 26.308 27.8633 26.3116C29.6154 26.3116 33.1441 26.2824 33.1441 26.2824L56.4352 26.2993L50.5941 39.2131H53.6645L69.8722 19.4007L73.3959 26.2843H90.8494V11.5752H81.9355Z" fill="#B4C0D3"/>
<path id="Path_12988" d="M79.8308 10.2396L79.808 12.3832L78.2358 10.2396H71.4794L67.4097 0.683594L62.2839 10.2396H52.6188L51.3259 12.2197L51.3053 10.2396H42.7664V17.2622L39.4833 17.2659V10.2396H14.8969L12.2034 15.0643L9.45481 10.2396H0.352783L8.7042 24.9487H15.7431L17.9538 21.0339C18.2079 21.5509 18.5282 22.0326 18.9066 22.4671C19.4675 23.128 20.1492 23.6762 20.9154 24.0826C21.7298 24.4887 22.6113 24.7438 23.517 24.8354C24.2602 24.9263 25.0081 24.9737 25.7568 24.9775C27.5089 24.9775 31.0379 24.9484 31.0379 24.9484L54.3287 24.9649L48.491 37.8771H51.5617L67.7681 18.0654L71.2919 24.9493H88.7453V10.2396H79.8308Z" fill="#B4C0D3"/>
<g id="Group_2259">
<path id="Path_12989" d="M27.2828 11.9127V17.5381C27.2828 18.0671 27.2011 18.4686 26.9367 18.7316C26.6093 18.9858 26.206 19.1234 25.7912 19.1224C25.3763 19.1213 24.9738 18.9817 24.6477 18.7257C24.5108 18.5618 24.4077 18.3724 24.3444 18.1685C24.2811 17.9646 24.2588 17.7503 24.2788 17.5378V11.9124H21.8373L19.3325 16.4004V17.3797C19.3496 18.1381 19.4763 18.8901 19.7087 19.6123C19.8984 20.2103 20.2127 20.7615 20.6309 21.2297C21.0414 21.7152 21.5406 22.1184 22.102 22.4177C22.7198 22.7203 23.3872 22.909 24.0723 22.9747C24.7445 23.0572 25.4209 23.1005 26.0982 23.1042C27.0686 23.1244 28.0351 22.9741 28.9534 22.6601C29.6051 22.4077 30.1943 22.0171 30.6802 21.5154C31.2186 20.9811 31.6285 20.3317 31.879 19.6163C32.1287 18.897 32.2543 18.1407 32.2506 17.3794L32.2601 11.9121L27.2828 11.9127Z" fill="white"/>
<path id="Path_12990" d="M16.3899 11.9141L12.5373 18.7657L8.68987 11.9141H3.80688L10.0986 23.0721H14.9813L21.2729 11.9153L16.3899 11.9141Z" fill="white"/>
<path id="Path_12991" d="M38.0814 19.0395V11.9141H33.1987V23.0721H43.9975L43.9867 19.0518L38.0814 19.0395Z" fill="white"/>
<path id="Path_12992" d="M57.2379 23.0708L58.4367 20.8673L55.5812 17.7432L59.6788 11.9141H54.0446L50.3069 17.7432L54.4199 23.0708H57.2379Z" fill="white"/>
<path id="Path_12993" d="M44.9451 17.115L44.9353 23.0708H49.8183V11.9141H44.9362L44.9451 17.115Z" fill="white"/>
<path id="Path_12994" d="M81.9337 11.9143V18.1022L77.6495 11.9509L77.6141 11.9143H72.7312V16.9781L67.5731 4.88281L51.4417 34.7904L67.9195 14.8402L72.7327 23.0711L75.1997 23.0969L77.6154 23.0711V17.1646L81.9349 23.0711H86.9117V11.9143H81.9337Z" fill="white"/>
</g>
<path id="Path_12995" d="M71.0331 38.9678C70.8366 38.9631 70.6416 38.9321 70.4534 38.8757C70.2723 38.8275 70.0565 38.7585 69.8097 38.6698C69.573 38.5848 69.3225 38.4832 69.0622 38.3654C68.8069 38.2512 68.558 38.1235 68.3165 37.9827C68.0669 37.8395 67.8337 37.6695 67.6212 37.4757C67.3209 37.2184 67.1181 36.866 67.0467 36.4774C67.0317 36.388 66.9844 36.1253 66.9047 35.6893C66.825 35.2533 66.7162 34.717 66.5783 34.0805C66.4397 33.4436 66.2767 32.7503 66.0892 32.0004C65.9048 31.2608 65.7016 30.5408 65.4862 29.862C65.3138 29.3079 65.1101 28.764 64.876 28.233C64.8388 28.3625 64.8019 28.4991 64.7657 28.6409C64.5443 29.5299 64.4165 30.4395 64.3845 31.355C64.3684 31.7243 64.3875 32.0942 64.4414 32.4598C64.4593 32.6489 64.5089 32.8337 64.588 33.0064C64.6375 33.0894 64.6968 33.166 64.7647 33.2347C64.8643 33.317 64.9406 33.379 64.9925 33.4167C65.1233 33.5097 65.2344 33.6277 65.3192 33.7638C65.404 33.8999 65.461 34.0515 65.4868 34.2097C65.5134 34.3856 65.5041 34.565 65.4594 34.7372C65.4146 34.9094 65.3354 35.0707 65.2264 35.2114C65.0915 35.3906 64.9189 35.5381 64.7207 35.6433C64.5224 35.7486 64.3035 35.8091 64.0793 35.8206C63.9911 35.8297 63.9024 35.8342 63.8137 35.8341C63.5838 35.8326 63.3546 35.808 63.1295 35.7608C62.8077 35.6945 62.493 35.5978 62.1895 35.472C61.8552 35.336 61.5375 35.1626 61.2425 34.9549C60.9385 34.7423 60.6667 34.4872 60.4353 34.1975C60.1625 33.8587 59.9824 33.4549 59.9128 33.0257C59.7847 32.2301 59.76 31.4213 59.8393 30.6194C59.911 29.8564 60.0697 29.104 60.3124 28.3769C60.5394 27.6934 60.8556 27.0427 61.253 26.4417C61.6278 25.8617 62.1189 25.3655 62.6952 24.9842C63.2631 24.6116 63.9257 24.4084 64.6052 24.3984C65.2997 24.4051 65.976 24.621 66.5457 25.0177C66.7784 25.0947 67.0068 25.1838 67.2302 25.2847C67.5438 25.4261 67.8424 25.5985 68.1216 25.7993C68.4242 26.0178 68.6926 26.2799 68.918 26.577C69.1767 26.916 69.3554 27.309 69.4406 27.7266C69.4587 27.8172 69.4781 27.9086 69.4965 28.0007C69.5205 27.7779 69.5463 27.5557 69.5718 27.3329C69.6668 26.5313 69.7836 25.7346 69.9204 24.9652C70.0441 24.2434 70.2143 23.5304 70.43 22.8305C70.61 22.2157 70.8812 21.6313 71.2347 21.0968C71.4125 20.8093 71.6487 20.5623 71.9281 20.3716C72.2075 20.1809 72.5239 20.0509 72.8567 19.9899C73.0554 19.9569 73.2563 19.9401 73.4576 19.9395C73.7679 19.937 74.0765 19.9857 74.3709 20.0838C74.7498 20.206 75.099 20.406 75.396 20.671C75.693 20.9359 75.9311 21.2599 76.0952 21.6222C76.227 21.9046 76.3121 22.2064 76.347 22.5159C76.3914 22.8707 76.3242 23.2305 76.1549 23.5455C76.0497 23.7379 75.8946 23.8985 75.7058 24.0104C75.5171 24.1224 75.3017 24.1815 75.0821 24.1817C74.9291 24.1812 74.7774 24.1527 74.6346 24.0976C74.6318 24.1053 74.6288 24.1124 74.6254 24.1203C74.4629 24.5387 74.3425 24.9721 74.2657 25.4142C74.1554 25.9958 74.0558 26.6461 73.971 27.3458C73.8845 28.0606 73.8061 28.8113 73.7358 29.5978C73.6641 30.3928 73.5969 31.1793 73.5342 31.9571C73.4701 32.7479 73.3997 33.4997 73.323 34.2125C73.244 34.9426 73.1472 35.6058 73.035 36.1834C72.9416 36.7107 72.7959 37.2274 72.5998 37.7258C72.2288 38.6204 71.6543 38.8874 71.239 38.9534L71.1514 38.9678H71.0331Z" fill="#B4C0D3"/>
<path id="Path_12996" d="M79.4696 41.1548C79.1832 41.1565 78.898 41.117 78.6228 41.0376C78.2235 40.9239 77.8521 40.7292 77.5316 40.4656C77.2448 40.2256 77.0083 39.9313 76.8357 39.5998C76.7008 39.3416 76.5987 39.0676 76.532 38.7841L76.5173 38.7043C76.5044 38.6205 76.4958 38.537 76.4902 38.452C76.4865 38.3787 76.4853 38.3133 76.4859 38.2489C76.4462 37.6511 76.5461 37.0523 76.7776 36.4996C76.9978 35.9854 77.3041 35.5125 77.6835 35.1011C77.931 34.8332 78.201 34.5868 78.4903 34.3645C78.4137 34.3054 78.3384 34.2415 78.2644 34.1727C78.005 34.4612 77.718 34.7236 77.4074 34.9562C76.902 35.342 76.3052 35.5905 75.6751 35.6777C75.5759 35.6895 75.4762 35.6954 75.3763 35.6955C75.0856 35.6927 74.7968 35.6484 74.5187 35.5639C74.1058 35.4383 73.7224 35.2312 73.3913 34.9547C73.0297 34.6495 72.726 34.282 72.4947 33.8695C72.2209 33.3755 72.0394 32.8359 71.9592 32.2771C71.8258 31.4755 71.8692 30.6545 72.0861 29.8713C72.2771 29.172 72.5736 28.5058 72.9652 27.8955C73.3265 27.33 73.7789 26.8279 74.3042 26.4096C74.7863 26.0099 75.3622 25.7389 75.9778 25.6221C76.1578 25.593 76.3398 25.578 76.5222 25.5773C77.1348 25.5624 77.7295 25.7846 78.182 26.1972C78.3139 26.3213 78.4308 26.4602 78.5306 26.6112C78.8161 26.2906 79.1284 25.9948 79.4641 25.727C79.7827 25.4716 80.1283 25.2517 80.4947 25.0712C80.7988 24.917 81.1234 24.807 81.4587 24.7447C81.6373 24.7154 81.818 24.7002 81.999 24.6993C82.1899 24.6982 82.3803 24.7188 82.5664 24.7606C82.9057 24.8354 83.2226 24.9889 83.4914 25.2087C83.731 25.4061 83.9249 25.6531 84.0597 25.9327C84.1658 26.1499 84.24 26.3812 84.2801 26.6195C84.3252 26.8891 84.3382 27.1631 84.3188 27.4358C84.5631 27.6089 84.7446 27.8564 84.8359 28.1413C84.9272 28.4261 84.9234 28.7329 84.8251 29.0154C84.7902 29.1453 84.7554 29.3098 84.7205 29.5089L84.5705 30.3765L84.2684 32.2009C84.316 32.1988 84.3631 32.1976 84.4101 32.1976C84.7474 32.1969 85.0828 32.2486 85.4041 32.351C85.8399 32.4869 86.2481 32.6987 86.61 32.9765C86.9224 33.216 87.1992 33.4988 87.4319 33.8161C87.6363 34.0883 87.7959 34.3914 87.9047 34.7138C88.001 34.9554 88.0279 35.2191 87.9823 35.4752C87.9366 35.7313 87.8204 35.9696 87.6465 36.1632C87.5317 36.2852 87.393 36.3823 87.239 36.4484C87.085 36.5144 86.919 36.5481 86.7514 36.5472C86.4103 36.536 86.082 36.4156 85.8148 36.2037C85.7526 36.1615 85.6802 36.1368 85.6052 36.1322C85.4633 36.1127 85.3202 36.1033 85.177 36.104C85.0848 36.104 84.9867 36.1074 84.8878 36.1144C84.5633 36.1394 84.241 36.1869 83.9232 36.2565C83.7551 36.2918 83.5851 36.3323 83.4145 36.3771C83.306 36.8209 83.1993 37.23 83.0954 37.5976C82.9493 38.1373 82.7526 38.6621 82.508 39.1649C82.2802 39.6394 81.9619 40.0649 81.5708 40.4177C81.1509 40.7827 80.6355 41.0208 80.085 41.1042C79.8815 41.1371 79.6758 41.154 79.4696 41.1548Z" fill="#B4C0D3"/>
<path id="Path_12997" d="M86.0305 33.6124C85.7761 33.6114 85.5236 33.5683 85.2833 33.4847C84.9114 33.3531 84.5755 33.1362 84.3028 32.8516C84.0222 32.5608 83.7911 32.2263 83.6186 31.8612C83.412 31.4213 83.2726 30.953 83.2048 30.4719C83.0333 29.5387 83.1043 28.5772 83.4111 27.6792C83.6669 26.9479 84.0528 26.2687 84.5502 25.6743C84.9756 25.1635 85.4805 24.7243 86.0456 24.3737C86.4734 24.0884 86.9518 23.8874 87.4552 23.7817C87.6249 23.7538 87.7966 23.7394 87.9685 23.7387C88.4826 23.7357 88.9839 23.8988 89.3975 24.2036C89.6009 24.3573 89.7744 24.5466 89.9096 24.7625C90.0275 24.5676 90.1624 24.3836 90.3129 24.2125C90.6763 23.8016 91.1207 23.4699 91.6183 23.2382C92.1472 22.9925 92.7223 22.8621 93.3055 22.8555C94.4317 22.8555 95.0493 23.3005 95.376 23.6749C95.776 24.1362 96.036 24.7018 96.1254 25.3054C96.1754 25.6381 96.1754 25.9765 96.1254 26.3092C96.0794 26.6328 95.9945 26.9497 95.8724 27.2529C95.7425 27.5809 95.5527 27.882 95.3127 28.1408C95.2516 28.2056 95.1865 28.2666 95.1178 28.3234C95.4264 28.8453 95.5744 29.4463 95.5434 30.0516C95.5125 30.6568 95.3038 31.2397 94.9435 31.7274C94.6038 32.1163 94.1859 32.4293 93.7169 32.6461C93.2479 32.8629 92.7385 32.9786 92.2217 32.9857C91.8407 32.9925 91.4645 32.9008 91.1296 32.7193C91.0223 32.6598 90.9196 32.5924 90.8222 32.5177C90.7276 32.6097 90.6301 32.7 90.5299 32.7847C90.0637 33.1915 89.4928 33.46 88.8818 33.5599C88.7579 33.5798 88.6326 33.59 88.5071 33.5906C88.0578 33.5981 87.6217 33.4392 87.2828 33.1447C87.0263 33.375 86.7095 33.5277 86.3693 33.5847C86.2573 33.6028 86.144 33.612 86.0305 33.6124Z" fill="#B4C0D3"/>
<g id="Group_2260">
<path id="Path_12998" d="M73.5905 23.6866C73.6983 23.365 73.9035 23.0848 74.1779 22.8847C74.3043 22.8202 74.4478 22.7969 74.5882 22.8182C74.7286 22.8394 74.8588 22.9041 74.9604 23.0032C75.0572 23.0822 75.1299 23.0784 75.1787 22.9918C75.2326 22.8765 75.2504 22.7476 75.2297 22.622C75.1909 22.284 75.0549 21.9645 74.8382 21.702C74.6215 21.4394 74.3334 21.2451 74.0085 21.1425C73.6919 21.0475 73.3569 21.031 73.0326 21.0946C72.8507 21.1343 72.6791 21.2113 72.5286 21.3207C72.3781 21.4301 72.2521 21.5696 72.1584 21.7302C71.8694 22.1736 71.6474 22.657 71.4994 23.1649C71.2987 23.819 71.1402 24.4853 71.0248 25.1597C70.8922 25.9044 70.7795 26.6723 70.6867 27.4632C70.5939 28.2542 70.5136 29.0455 70.446 29.8371C70.3788 30.6295 70.3161 31.366 70.2579 32.0467C70.1997 32.7274 70.144 33.3288 70.0907 33.8509C70.062 34.2387 69.9973 34.6229 69.8973 34.9987C69.8795 34.8864 69.8165 34.5925 69.7083 34.117C69.6001 33.6415 69.4712 33.067 69.3216 32.3935C69.1714 31.7201 69.0075 30.9916 68.8298 30.2078C68.6521 29.424 68.4893 28.6716 68.3414 27.9506C68.2907 27.6975 68.1825 27.4593 68.0251 27.2546C67.8668 27.0452 67.6781 26.8607 67.4651 26.7071C67.2481 26.551 67.0157 26.4173 66.7716 26.3081C66.538 26.2017 66.2974 26.1115 66.0514 26.038C65.6444 25.7144 65.1426 25.5324 64.6224 25.5197C64.1527 25.5276 63.6949 25.6692 63.3029 25.9279C62.8563 26.2265 62.4763 26.614 62.1868 27.0661C61.8441 27.585 61.5717 28.1469 61.3766 28.7372C61.1612 29.384 61.0203 30.0533 60.9567 30.732C60.8869 31.4387 60.9087 32.1514 61.0215 32.8526C61.0613 33.0919 61.1625 33.3168 61.3154 33.5053C61.4796 33.7114 61.673 33.8925 61.8896 34.0427C62.1152 34.2015 62.3583 34.334 62.6141 34.4377C62.8521 34.537 63.0991 34.6134 63.3518 34.6657C63.5529 34.7103 63.7596 34.7249 63.965 34.709C64.0312 34.7097 64.0968 34.6967 64.1577 34.6707C64.2185 34.6447 64.2733 34.6063 64.3184 34.558C64.3956 34.4509 64.4015 34.3738 64.3363 34.3272C64.2711 34.2806 64.1746 34.2044 64.0477 34.098C63.8919 33.9587 63.7573 33.7975 63.6481 33.6195C63.4789 33.3171 63.3719 32.9841 63.3333 32.6399C63.2683 32.2032 63.2449 31.7614 63.2632 31.3203C63.2979 30.3242 63.4373 29.3346 63.6791 28.3677C63.7808 27.9524 63.9069 27.5435 64.0569 27.1432C64.1543 26.864 64.2925 26.6007 64.4669 26.3618C64.6065 26.1877 64.7358 26.1434 64.8548 26.2289C64.9043 26.267 64.9569 26.3007 65.0122 26.3296C65.3513 26.7079 65.6254 27.1396 65.8234 27.6072C66.1082 28.2308 66.353 28.8719 66.5565 29.5265C66.7802 30.2352 66.9873 30.9701 67.1777 31.7312C67.368 32.4923 67.5336 33.197 67.6744 33.8454C67.815 34.494 67.9267 35.0423 68.0094 35.4903C68.0922 35.9384 68.1408 36.2085 68.1551 36.3005C68.1905 36.4415 68.2715 36.5667 68.3857 36.6568C68.5383 36.7946 68.7055 36.9154 68.8842 37.0171C69.0925 37.1384 69.3073 37.2483 69.5276 37.3464C69.7591 37.451 69.9808 37.5413 70.1927 37.6174C70.4039 37.6941 70.5895 37.753 70.7485 37.796C70.85 37.8306 70.9566 37.848 71.0638 37.8476C71.2581 37.8165 71.4253 37.6323 71.5655 37.2952C71.7313 36.8665 71.8549 36.4227 71.9343 35.97C72.0409 35.4233 72.1321 34.7979 72.2079 34.0937C72.2837 33.3894 72.3535 32.647 72.4172 31.8662C72.4807 31.0851 72.5482 30.2957 72.6195 29.4979C72.6908 28.7002 72.7705 27.9379 72.8586 27.211C72.9465 26.4836 73.049 25.8144 73.166 25.2033C73.2559 24.6847 73.3981 24.1766 73.5905 23.6866Z" fill="white"/>
<path id="Path_12999" d="M86.5208 34.4723C86.3504 34.2409 86.1477 34.0352 85.9189 33.8612C85.6612 33.6639 85.3707 33.5135 85.0607 33.4169C84.7133 33.3105 84.3455 33.2887 83.988 33.353C83.6503 33.407 83.2845 33.4814 82.8906 33.5761C82.9203 33.4352 82.9568 33.2378 83.0001 32.9841C83.0433 32.7304 83.0902 32.4503 83.1408 32.1439L83.3004 31.1747C83.3563 30.8355 83.411 30.5069 83.4645 30.189C83.5182 29.8714 83.5686 29.5803 83.6157 29.3155C83.6629 29.0508 83.7097 28.836 83.7562 28.6711C83.8177 28.5252 83.7635 28.4002 83.5936 28.2961C83.4089 28.1869 83.2019 28.1206 82.9881 28.1021C83.0799 27.919 83.144 27.7233 83.1783 27.5215C83.2169 27.282 83.2149 27.0378 83.1725 26.799C83.1499 26.6667 83.1085 26.5382 83.0495 26.4176C82.9835 26.2829 82.8891 26.1639 82.7729 26.0689C82.6384 25.9614 82.4805 25.887 82.3118 25.8517C82.0886 25.8078 81.859 25.8073 81.6356 25.8501C81.4075 25.8965 81.1868 25.9742 80.98 26.0809C80.688 26.2255 80.4127 26.4014 80.159 26.6057C79.8532 26.8502 79.5702 27.122 79.3137 27.4177C79.0265 27.7464 78.786 28.113 78.5991 28.5072C78.3953 28.9383 78.2515 29.3952 78.1715 29.8652C78.157 29.9481 78.1457 30.0321 78.1361 30.1171C78.0337 30.3436 77.9095 30.5882 77.7636 30.8509C77.5599 31.213 77.3121 31.5485 77.0259 31.8499C76.7346 32.1622 76.3454 32.366 75.9224 32.4277C75.7929 32.4642 75.6554 32.4608 75.5278 32.4181C75.4003 32.3754 75.2885 32.2953 75.2071 32.1884C75.0465 31.94 74.9617 31.6504 74.9631 31.3549C75.2972 31.2888 75.6134 31.1522 75.8904 30.9543C76.2287 30.7283 76.5402 30.4647 76.819 30.1687C77.0985 29.8763 77.3396 29.5496 77.5364 29.1965C77.7116 28.9055 77.8128 28.5761 77.8312 28.2371C77.8559 28.0152 77.8314 27.7906 77.7594 27.5793C77.6873 27.3679 77.5696 27.175 77.4144 27.0142C77.2423 26.8706 77.0386 26.7699 76.82 26.7202C76.6013 26.6706 76.374 26.6734 76.1566 26.7284C75.7284 26.8158 75.3291 27.0094 74.9957 27.2916C74.568 27.6327 74.2001 28.0424 73.9072 28.5041C73.5769 29.0191 73.3275 29.5815 73.1677 30.1718C72.9939 30.7991 72.9598 31.4568 73.0678 32.0988C73.1263 32.523 73.2617 32.9331 73.4674 33.3088C73.6309 33.6046 73.8466 33.8685 74.104 34.0877C74.3189 34.2693 74.5684 34.4057 74.8374 34.4888C75.0597 34.5603 75.2941 34.5869 75.5268 34.5671C75.967 34.5048 76.3835 34.3297 76.7357 34.0589C77.1169 33.7722 77.4546 33.432 77.7384 33.0489C77.9579 32.7559 78.1532 32.4457 78.3224 32.1212C78.3712 32.2898 78.434 32.454 78.5102 32.6122C78.6323 32.8767 78.7986 33.1185 79.002 33.3272C79.162 33.4902 79.3568 33.6149 79.5719 33.6921C79.751 33.7577 79.9436 33.7783 80.1325 33.752C80.2548 33.7291 80.3683 33.6728 80.4605 33.5893C80.5727 33.4927 80.674 33.3841 80.7627 33.2656C80.8592 33.1385 80.9484 33.006 81.0298 32.8687C81.1117 32.73 81.1858 32.6028 81.252 32.487C81.1772 32.7405 81.1065 33.0192 81.0399 33.3233C80.9733 33.6273 80.9091 33.9469 80.8472 34.282C80.4016 34.4774 79.9729 34.7091 79.5654 34.9749C79.1784 35.2247 78.8242 35.522 78.5111 35.8597C78.2173 36.1768 77.9802 36.5421 77.8103 36.9394C77.6408 37.3467 77.5714 37.7887 77.6081 38.2283C77.6065 38.2811 77.6081 38.3333 77.6096 38.3851C77.6111 38.437 77.6185 38.4883 77.6265 38.5386C77.6719 38.7295 77.7411 38.914 77.8328 39.0876C77.9376 39.2878 78.0813 39.4651 78.2554 39.6093C78.4569 39.7738 78.6905 39.8945 78.9415 39.9635C79.2568 40.0469 79.5868 40.0586 79.9072 39.9975C80.2493 39.9474 80.5699 39.8004 80.8309 39.574C81.1125 39.3175 81.341 39.0084 81.5034 38.6641C81.7161 38.2237 81.8875 37.7646 82.0152 37.2926C82.166 36.7607 82.3184 36.1571 82.4723 35.4819C82.8821 35.3532 83.2874 35.2463 83.688 35.1612C84.0579 35.0805 84.4329 35.0256 84.8105 34.997C85.1295 34.9719 85.4503 34.9812 85.7674 35.0247C86.022 35.0528 86.2649 35.1466 86.4722 35.2969C86.6505 35.4258 86.7685 35.4589 86.8272 35.3975C86.8859 35.3362 86.8887 35.2202 86.8343 35.0501C86.7602 34.8425 86.6545 34.6476 86.5208 34.4723ZM75.4266 29.0467C75.5251 28.8023 75.6454 28.5672 75.7859 28.3442C75.9043 28.1531 76.0485 27.9792 76.2144 27.8274C76.341 27.7059 76.4999 27.6232 76.6721 27.589C76.836 27.563 76.9205 27.6307 76.9254 27.7921C76.9143 28.0074 76.8473 28.216 76.7311 28.3976C76.5663 28.6786 76.3641 28.9359 76.1299 29.1624C75.8433 29.4447 75.5107 29.6763 75.1463 29.8471C75.2276 29.5719 75.3211 29.3051 75.4266 29.0467ZM80.044 37.2714C79.9373 37.5331 79.7873 37.7751 79.6002 37.9871C79.4473 38.1614 79.2445 38.2845 79.0192 38.3397C78.7619 38.3848 78.4969 38.3415 78.2674 38.217C78.2076 38.1812 78.1636 38.1242 78.1441 38.0574C78.1246 37.9906 78.1311 37.9189 78.1623 37.8567C78.2544 37.6704 78.3868 37.5069 78.5499 37.3779C78.7919 37.1734 79.0527 36.992 79.3288 36.8363C79.6499 36.6482 80.0011 36.4662 80.3825 36.2903C80.2923 36.6248 80.1792 36.9527 80.044 37.2717V37.2714ZM82.1622 27.3223C82.1303 27.4906 82.0649 27.6508 81.9697 27.7934C81.8583 27.9793 81.7388 28.1663 81.6113 28.3544C81.5094 28.4715 81.45 28.6195 81.4426 28.7745C81.4453 28.8081 81.4547 28.8408 81.4702 28.8707C81.4858 28.9006 81.5072 28.927 81.5333 28.9485C81.5814 28.9832 81.6337 29.0118 81.6888 29.0338C81.6296 29.2531 81.571 29.4932 81.513 29.7541C81.4579 30.0053 81.3874 30.253 81.3018 30.4955C81.2289 30.7087 81.1261 30.9105 80.9966 31.0949C80.9446 31.1724 80.8772 31.2385 80.7986 31.289C80.7201 31.3395 80.632 31.3734 80.5398 31.3886C80.4507 31.4064 80.3582 31.3936 80.2773 31.3524C80.1964 31.3111 80.1319 31.2437 80.0941 31.1612C79.9817 30.9408 79.9211 30.6977 79.9171 30.4504C79.9053 30.1226 79.9373 29.7948 80.0124 29.4754C80.0895 29.1221 80.2118 28.7802 80.3763 28.4581C80.5339 28.1472 80.7416 27.8643 80.9911 27.6206C81.2239 27.3883 81.5244 27.2355 81.8495 27.1842C82.0739 27.1482 82.1781 27.1943 82.1622 27.3226V27.3223Z" fill="white"/>
<path id="Path_13000" d="M95.0181 25.4818C94.9615 25.086 94.7928 24.7146 94.5319 24.4113C94.3757 24.2548 94.1868 24.1345 93.9788 24.0591C93.7708 23.9836 93.5486 23.9549 93.3282 23.9749C92.9034 23.9789 92.4843 24.073 92.0987 24.2512C91.7393 24.4171 91.4185 24.6559 91.1566 24.9524C90.8991 25.2452 90.7074 25.5897 90.5944 25.9627C90.4767 26.346 90.4502 26.7514 90.5169 27.1467C90.5633 27.4584 90.6741 27.7571 90.8424 28.0238C90.8181 28.0701 90.793 28.118 90.7674 28.1683C90.6599 28.3799 90.5471 28.6077 90.4293 28.8518C90.3115 29.0959 90.1908 29.3249 90.0672 29.5389C89.9582 29.7329 89.8286 29.9146 89.6806 30.0809C89.5832 30.2049 89.4472 30.2929 89.2942 30.3313C89.0995 30.3626 88.9898 30.2676 88.965 30.0462C88.9426 29.7817 88.9634 29.5153 89.0265 29.2575C89.0948 28.9469 89.1886 28.6425 89.3068 28.3472C89.3923 28.1127 89.5049 27.8889 89.6421 27.6804C89.6693 27.6494 89.6887 27.6125 89.6987 27.5725C89.7087 27.5326 89.709 27.4909 89.6996 27.4508C89.6745 27.3764 89.6256 27.3124 89.5604 27.2685C89.4777 27.2111 89.3879 27.1647 89.2933 27.1304C89.1798 27.0886 89.061 27.0627 88.9404 27.0534C89.0349 26.8799 89.0986 26.6915 89.1288 26.4964C89.1634 26.2594 89.1596 26.0183 89.1174 25.7825C89.0951 25.6578 89.0543 25.5371 88.9963 25.4244C88.9317 25.2959 88.8378 25.1842 88.7221 25.0985C88.5893 25.0021 88.4387 24.9328 88.2789 24.8947C88.0664 24.8488 87.8468 24.8465 87.6334 24.8879C87.2741 24.9756 86.9332 25.126 86.6265 25.3323C86.1645 25.6209 85.7521 25.9819 85.4049 26.4012C84.995 26.8938 84.6774 27.4561 84.4674 28.0612C84.2253 28.7806 84.1723 29.55 84.3138 30.2957C84.3652 30.6672 84.4711 31.0291 84.6279 31.3698C84.7469 31.6256 84.9069 31.8603 85.1016 32.0646C85.253 32.2256 85.4399 32.3492 85.6475 32.4255C85.8215 32.4881 86.0083 32.5068 86.1912 32.4799C86.3785 32.4395 86.5455 32.3348 86.6633 32.184C86.8141 32.0132 86.948 31.8282 87.0629 31.6316C87.2123 31.3823 87.3388 31.1199 87.4407 30.8478C87.4561 31.1499 87.5199 31.4476 87.6297 31.7295C87.7139 31.9419 87.8439 32.1331 88.0106 32.2896C88.1051 32.3701 88.2175 32.4269 88.3384 32.4554C88.4593 32.4839 88.5853 32.4833 88.7059 32.4535C89.1136 32.3854 89.494 32.2046 89.8041 31.9317C90.1415 31.643 90.4354 31.3072 90.6768 30.9346C90.9242 30.5564 91.1285 30.1518 91.286 29.7283C91.3844 29.4662 91.4674 29.1987 91.5346 28.927C91.6883 29.1074 91.8356 29.2836 91.9733 29.453C92.1371 29.6478 92.2456 29.883 92.2874 30.134C92.3218 30.3069 92.3155 30.4856 92.269 30.6557C92.2462 30.7264 92.2028 30.7887 92.1442 30.8345C92.0856 30.8803 92.0146 30.9075 91.9404 30.9126C91.8072 30.9342 91.7212 30.9219 91.6825 30.8754C91.6449 30.8319 91.6201 30.7788 91.6109 30.722C91.6023 30.6681 91.591 30.6148 91.5771 30.5621C91.5638 30.5118 91.5263 30.4915 91.4652 30.5007C91.3925 30.5107 91.325 30.5435 91.2723 30.5945C91.2196 30.6454 91.1846 30.7118 91.1722 30.784C91.1312 30.9553 91.1518 31.1356 91.2303 31.2934C91.3283 31.4867 91.486 31.6434 91.68 31.7402C91.9548 31.8696 92.2652 31.903 92.5613 31.8351C93.1437 31.7773 93.6801 31.4938 94.0554 31.0454C94.2994 30.7091 94.4301 30.304 94.4285 29.8887C94.4269 29.4734 94.2931 29.0693 94.0465 28.7348C93.8636 28.4954 93.6666 28.267 93.4567 28.0508C93.2495 27.8378 93.0583 27.6272 92.8831 27.4189C92.7106 27.2167 92.5976 26.9708 92.5567 26.7084C92.4811 26.3058 92.5356 25.8896 92.7122 25.5198C92.8063 25.3401 92.9443 25.187 93.1133 25.0746C93.2824 24.9622 93.4772 24.8942 93.6795 24.8769C93.8736 24.8458 94.0005 24.9014 94.0604 25.0438C94.1204 25.2087 94.1214 25.3892 94.0634 25.5548C94.002 25.7602 93.8988 25.9507 93.7601 26.1143C93.6306 26.2804 93.4433 26.3918 93.2354 26.4264C93.1229 26.4446 93.065 26.5247 93.0617 26.6667C93.0611 26.8203 93.1016 26.9713 93.1791 27.104C93.2662 27.2594 93.3845 27.3952 93.5264 27.503C93.5956 27.5598 93.6762 27.6009 93.7628 27.6237C93.8494 27.6465 93.9399 27.6503 94.0281 27.6349C94.2099 27.6026 94.3752 27.5095 94.4971 27.371C94.6425 27.2129 94.7571 27.0293 94.8352 26.8294C94.9232 26.6102 94.9841 26.3812 95.0166 26.1474C95.0506 25.9269 95.0512 25.7025 95.0181 25.4818ZM88.1022 26.4246C88.0646 26.5398 88.0106 26.6491 87.9417 26.7489C87.8615 26.8717 87.7847 26.9945 87.7093 27.1172C87.634 27.24 87.5689 27.352 87.512 27.4548C87.4651 27.5231 87.4398 27.6037 87.4392 27.6865C87.4461 27.7565 87.479 27.8214 87.5314 27.8685C87.5757 27.9062 87.6284 27.9328 87.6851 27.9461C87.6256 28.1655 87.5689 28.4 87.5148 28.6498C87.4631 28.89 87.396 29.1266 87.3138 29.3581C87.2432 29.5623 87.1443 29.7556 87.0199 29.9323C86.9705 30.0064 86.9065 30.0697 86.8318 30.1182C86.757 30.1667 86.6731 30.1994 86.5853 30.2144C86.4992 30.2335 86.4092 30.2228 86.33 30.184C86.2509 30.1452 86.1873 30.0807 86.1497 30.0011C86.0431 29.7866 85.9863 29.5509 85.9837 29.3115C85.9721 28.9946 86.0032 28.6777 86.076 28.369C86.1514 28.029 86.2675 27.6993 86.4218 27.387C86.5681 27.0849 86.7665 26.8108 87.0079 26.5774C87.23 26.3583 87.5149 26.2137 87.8231 26.1637C87.966 26.1407 88.0552 26.1557 88.0899 26.2076C88.1075 26.2407 88.1178 26.2773 88.1199 26.3147C88.122 26.3522 88.116 26.3897 88.1022 26.4246Z" fill="white"/>
</g>
</g>
</g>
<defs>
<clipPath id="clip0_96_15785">
<rect width="95.8114" height="40.472" fill="white" transform="translate(0.352539 0.685547)"/>
</clipPath>
</defs>
</svg>
