<svg width="218" height="113" viewBox="0 0 218 113" fill="none" xmlns="http://www.w3.org/2000/svg">
<g id="Frame 36433">
<rect width="218" height="113" rx="24" fill="white"/>
<g id="XMLID_1_">
<path id="XMLID_3_" d="M83.9606 46.7113C83.4829 44.8714 82.0105 43.4357 80.1706 42.9213C76.8215 42 63.4226 42 63.4226 42C63.4226 42 50.0236 42 46.6745 42.8845C44.8714 43.3622 43.3989 44.8714 42.8845 46.6745C42 50.0236 42 56.9816 42 56.9816C42 56.9816 42 63.9737 42.8845 67.2887C43.3622 69.1286 44.8346 70.5643 46.6745 71.0787C50.0604 72 63.4226 72 63.4226 72C63.4226 72 76.8215 72 80.1706 71.1155C82.0105 70.6378 83.4462 69.1654 83.9606 67.3255C84.8451 63.9764 84.8451 57.0184 84.8451 57.0184C84.8451 57.0184 84.8793 50.063 83.9606 46.7113Z" fill="#FF0000"/>
<path id="XMLID_4_" d="M59.189 63.4217L70.3045 57.0175L59.189 50.6133V63.4217Z" fill="white"/>
<path id="XMLID_7_" d="M104.205 69.3132C103.357 68.762 102.769 67.8775 102.402 66.6255C102.034 65.4103 101.887 63.7909 101.887 61.8408V59.1164C101.887 57.0927 102.108 55.4733 102.475 54.2581C102.879 53.0061 103.543 52.161 104.389 51.5704C105.273 51.0192 106.412 50.7227 107.811 50.7227C109.173 50.7227 110.315 51.0166 111.16 51.5704C112.008 52.1216 112.596 53.0429 113 54.2581C113.404 55.4733 113.588 57.0927 113.588 59.1164V61.8408C113.588 63.8644 113.404 65.4471 113.037 66.6623C112.633 67.8775 112.042 68.7594 111.197 69.35C110.349 69.9011 109.173 70.1977 107.738 70.1977C106.265 70.1584 105.05 69.9011 104.205 69.3132ZM108.953 66.3683C109.21 65.7804 109.32 64.7489 109.32 63.3867V57.5337C109.32 56.2082 109.21 55.2161 108.953 54.5888C108.696 53.9615 108.328 53.6675 107.701 53.6675C107.15 53.6675 106.706 53.9982 106.486 54.5888C106.228 55.2135 106.118 56.2082 106.118 57.5337V63.3867C106.118 64.7489 106.228 65.7804 106.486 66.3683C106.706 66.9563 107.11 67.2896 107.738 67.2896C108.326 67.2896 108.732 66.993 108.953 66.3683Z" fill="#282828"/>
<path id="XMLID_10_" d="M169.278 61.8773V62.8353C169.278 64.0506 169.315 64.9325 169.388 65.5598C169.462 66.1477 169.609 66.628 169.829 66.8485C170.05 67.1424 170.38 67.2527 170.897 67.2527C171.522 67.2527 171.966 66.9954 172.186 66.5178C172.443 66.0401 172.554 65.229 172.59 64.0506L176.233 64.271C176.27 64.4548 176.27 64.6752 176.27 64.9325C176.27 66.6621 175.829 67.9508 174.871 68.796C173.913 69.6437 172.59 70.0479 170.858 70.0479C168.761 70.0479 167.325 69.3865 166.478 68.0611C165.63 66.7724 165.226 64.7487 165.226 61.9876V58.712C165.226 55.8773 165.63 53.8537 166.514 52.5283C167.399 51.2395 168.871 50.5781 170.968 50.5781C172.404 50.5781 173.546 50.8721 174.317 51.3892C175.089 51.9062 175.606 52.7514 175.937 53.8563C176.268 54.9981 176.378 56.544 176.378 58.4941V61.6962H169.273L169.278 61.8773ZM169.832 54.0007C169.611 54.2947 169.464 54.6989 169.428 55.2894C169.391 55.8773 169.317 56.7986 169.317 58.0506V59.376H172.409V58.0506C172.409 56.8353 172.373 55.9535 172.299 55.2894C172.226 54.628 172.042 54.2212 171.858 54.0007C171.638 53.7435 171.307 53.5965 170.863 53.5965C170.346 53.5598 170.052 53.7067 169.832 54.0007Z" fill="#282828"/>
<path id="XMLID_11_" d="M93.8976 61.5465L89.1128 44.1738H93.3096L95.0026 52.0505C95.4068 54.0006 95.7375 55.6568 95.9606 57.019H96.0708C96.2178 56.0242 96.5117 54.4048 97.0288 52.0872L98.7952 44.1738H102.955L98.097 61.5465V69.8641H93.9369L93.8976 61.5465Z" fill="#282828"/>
<path id="XMLID_12_" d="M127.247 51.0918V69.9002H123.934L123.567 67.6194H123.457C122.572 69.349 121.213 70.2335 119.407 70.2335C118.155 70.2335 117.273 69.8293 116.646 68.9816C116.021 68.1338 115.761 66.8844 115.761 65.1548V51.1312H119.995V64.9343C119.995 65.7821 120.105 66.37 120.289 66.7375C120.473 67.1049 120.766 67.2519 121.21 67.2519C121.577 67.2519 121.908 67.1417 122.278 66.8844C122.646 66.664 122.866 66.4068 123.013 66.0367V51.1285H127.247V51.0918Z" fill="#282828"/>
<path id="XMLID_13_" d="M148.924 51.0918V69.9002H145.611L145.244 67.6194H145.134C144.249 69.349 142.89 70.2335 141.084 70.2335C139.832 70.2335 138.95 69.8293 138.323 68.9816C137.735 68.1705 137.438 66.8844 137.438 65.1548V51.1312H141.672V64.9343C141.672 65.7821 141.782 66.37 141.966 66.7375C142.15 67.1049 142.443 67.2519 142.887 67.2519C143.254 67.2519 143.585 67.1417 143.955 66.8844C144.323 66.664 144.543 66.4068 144.69 66.0367V51.1285H148.924V51.0918Z" fill="#282828"/>
<path id="XMLID_14_" d="M138.73 47.5593H134.533V69.8637H130.412V47.5593H126.215V44.1367H138.73V47.5593Z" fill="#282828"/>
<path id="XMLID_17_" d="M162.911 54.0734C162.654 52.8582 162.249 52.0131 161.659 51.496C161.108 50.9816 160.297 50.685 159.302 50.685C158.53 50.685 157.793 50.9054 157.131 51.3464C156.47 51.7506 155.916 52.3779 155.585 53.076H155.549V43.1758H151.462V69.8241H154.958L155.362 68.0577H155.472C155.803 68.6823 156.283 69.1994 156.945 69.5669C157.606 69.9343 158.307 70.118 159.115 70.118C160.551 70.118 161.583 69.4566 162.244 68.1312C162.905 66.8424 163.276 64.7453 163.276 61.9474V59.0025C163.281 56.9081 163.171 55.2519 162.911 54.0734ZM159.047 61.7296C159.047 63.0918 158.974 64.16 158.863 64.9317C158.753 65.7033 158.533 66.2571 158.312 66.5879C158.018 66.9186 157.688 67.0655 157.244 67.0655C156.877 67.0655 156.583 66.9921 156.286 66.8083C155.992 66.6246 155.772 66.4041 155.588 66.0734V55.4356C155.735 54.9579 155.992 54.5144 156.323 54.1837C156.69 53.8529 157.058 53.706 157.465 53.706C157.871 53.706 158.236 53.8897 158.459 54.1837C158.717 54.5511 158.863 55.1049 158.937 55.8766C159.047 56.6876 159.084 57.8267 159.084 59.2624L159.047 61.7296Z" fill="#282828"/>
</g>
</g>
</svg>
